<?xml version="1.0" encoding="utf-8"?>
<!-- Generator: Adobe Illustrator 26.3.1, SVG Export Plug-In . SVG Version: 6.00 Build 0)  -->
<svg version="1.1" id="Слой_1" xmlns="http://www.w3.org/2000/svg" xmlns:xlink="http://www.w3.org/1999/xlink" x="0px" y="0px"
	 viewBox="0 0 383 383.9" style="enable-background:new 0 0 383 383.9;" xml:space="preserve">
<style type="text/css">
	.st0{fill:#3187EF;}
	.st1{fill:#FDFEFE;}
	.st2{fill:#FCFDFE;}
</style>
<g>
	<path class="st0" d="M176.6,0c10,0,20,0,29.9,0c5.3,1.6,10.9,1.5,16.4,2.5c39,6.8,73.2,23.5,101.5,51.4
		C370,99,389.2,154,381.3,217.7c-5.7,45.8-26.5,84.4-60.4,115.7c-28.7,26.5-62.6,42.6-101.3,48.4c-4.6,0.7-9.4,0.5-13.8,2.1
		c-9.7,0-19.5,0-29.2,0c-3.5-1.4-7.2-1.2-10.9-1.7c-41.8-6-78-23.6-108.1-53.2c-30.5-30-49-66.3-55.5-108.6
		c-0.7-4.2-0.4-8.6-2.1-12.7c0-10.2,0-20.5,0-30.7c0.8-0.4,0.7-1.2,0.7-2c0.7-8.2,2-16.3,3.7-24.4C20.4,74.3,85.8,13.1,162.8,2.1
		C167.4,1.5,172.1,1.7,176.6,0z M292.6,152.2c-1.6,0.7-2.8,1.2-4,1.8c-31.1,15.2-62.2,30.4-93.3,45.7c-2.6,1.3-4.6,1.4-7.2,0
		c-31.1-15.7-62.4-31.2-93.6-46.8c-3.8-1.9-3.9-1.9-3.9,2.3c0,31.4,0,62.7,0,94.1c0,13.3,7.9,21.2,21.2,21.2c53.2,0,106.5,0,159.7,0
		c13.3,0,21.1-7.9,21.1-21.3c0-31,0-62,0-92.9C292.6,155,292.6,153.8,292.6,152.2z M191.5,113.4c-26.8,0-53.6,0-80.4,0
		c-10.5,0-18.1,6-20.2,15.4c-0.5,2.2,0,3.3,2.1,4.4c32,15.9,64,31.9,95.9,47.9c2,1,3.5,1,5.5,0c31.7-15.6,63.5-31.2,95.3-46.6
		c2.8-1.4,3.1-2.9,2.5-5.5c-2.1-9.7-9.7-15.6-20.4-15.7C245,113.4,218.3,113.4,191.5,113.4z"/>
	<path class="st1" d="M292.6,152.2c0,1.6,0,2.9,0,4.1c0,31,0,62,0,92.9c0,13.3-7.8,21.2-21.1,21.3c-53.2,0-106.5,0-159.7,0
		c-13.3,0-21.2-7.9-21.2-21.2c0-31.4,0-62.7,0-94.1c0-4.2,0-4.2,3.9-2.3c31.2,15.6,62.4,31.1,93.6,46.8c2.7,1.3,4.6,1.3,7.2,0
		c31.1-15.3,62.2-30.5,93.3-45.7C289.7,153.4,291,152.9,292.6,152.2z"/>
	<path class="st2" d="M191.5,113.4c26.8,0,53.6,0,80.4,0c10.7,0,18.3,5.9,20.4,15.7c0.6,2.6,0.2,4.2-2.5,5.5
		c-31.8,15.4-63.6,31-95.3,46.6c-2,1-3.6,0.9-5.5,0c-31.9-16-63.9-32-95.9-47.9c-2.1-1-2.6-2.2-2.1-4.4c2.1-9.5,9.7-15.4,20.2-15.4
		C137.9,113.4,164.7,113.4,191.5,113.4z"/>
</g>
</svg>
