<?xml version="1.0" encoding="utf-8"?>
<!-- Generator: Adobe Illustrator 26.3.1, SVG Export Plug-In . SVG Version: 6.00 Build 0)  -->
<svg version="1.1" id="Слой_1" xmlns="http://www.w3.org/2000/svg" xmlns:xlink="http://www.w3.org/1999/xlink" x="0px" y="0px"
	 viewBox="0 0 348.3 348.3" style="enable-background:new 0 0 348.3 348.3;" xml:space="preserve">
<style type="text/css">
	.st0{fill:#3187EF;}
	.st1{fill:#FDFEFE;}
</style>
<g>
	<path class="st0" d="M184.9,0c4.4,1.5,9,1.4,13.5,2.5c46.1,10.7,77.1,38.3,91,83.6c11.2,36.2,8.8,71.9-8,106.3
		c-4.2,8.5-10,16-15.3,23.7c-29.9,43.2-59.8,86.5-89.8,129.7c-2.3,3.4-2.4,3.4-4.7-0.1c-32.7-47.2-65.5-94.4-98.1-141.7
		c-12.3-17.7-18.6-37.8-20.7-59.1c-2.6-25.8,0.7-50.8,11.6-74.5C82,32.3,112,10.1,152.8,1.9c3-0.6,6.3-0.3,9.1-1.9
		C169.6,0,177.2,0,184.9,0z M175.4,161.1c22.3,0,40.3-18.1,40.3-40.4c-0.1-22-18.3-40.1-40.2-40.2c-22.3,0-40.3,18-40.3,40.3
		C135.1,143.2,152.9,161.1,175.4,161.1z"/>
	<path class="st1" d="M175.4,161.1c-22.4,0-40.3-17.9-40.3-40.2s18.1-40.3,40.3-40.3c22,0,40.2,18.2,40.2,40.2
		C215.6,143,197.6,161,175.4,161.1z"/>
</g>
</svg>
