<?xml version="1.0" encoding="utf-8"?>
<!-- Generator: Adobe Illustrator 26.3.1, SVG Export Plug-In . SVG Version: 6.00 Build 0)  -->
<svg version="1.1" id="Слой_1" xmlns="http://www.w3.org/2000/svg" xmlns:xlink="http://www.w3.org/1999/xlink" x="0px" y="0px"
	 viewBox="0 0 408.9 408.9" style="enable-background:new 0 0 408.9 408.9;" xml:space="preserve">
<style type="text/css">
	.st0{fill:#3187EF;}
	.st1{fill:#FDFEFE;}
	.st2{fill:#F8F9F9;}
</style>
<g>
	<path class="st0" d="M219.6,408.8c-10.4,0-20.8,0-31.1,0c-0.4-1-1.3-0.7-2.1-0.8c-8.7-0.8-17.4-2.1-26-4
		C49.9,379.3-19.8,270,5,160.1C29.8,49.8,139-19.7,248.7,5c83.2,18.7,145.2,85.6,158,170.4c0.7,4.6,0.5,9.4,2.1,13.9
		c0,10.4,0,20.8,0,31.1c-1.1,0.5-0.7,1.6-0.8,2.5c-0.9,8.5-2,16.9-3.9,25.2c-18.9,84-85.4,145.8-170.5,158.6
		C228.9,407.4,224.1,407.2,219.6,408.8z M125.9,89.5c-7.7,0-15.4-0.1-23.1,0C94.8,89.7,89.5,95,89.6,103c0.1,19.1,2.4,37.9,7.6,56.3
		c15.5,54.7,47.3,97.3,95.4,127.5c34.6,21.7,72.6,32.3,113.4,32.5c7.7,0,13.2-5.2,13.3-12.9c0.1-15.6,0.1-31.1,0-46.7
		c-0.1-7.6-5.2-12.9-12.8-13c-21.6-0.3-42.1-4.8-61.7-14c-7.8-3.7-14.4-1.1-18.3,6.6c-2.6,5.1-5.1,10.2-7.4,15.4
		c-0.9,2.1-1.7,2.4-3.7,1.1c-26-15.7-46.8-36.6-62.5-62.6c-1.1-1.8-1-2.6,1-3.5c5.1-2.3,10.1-4.8,15.1-7.2
		c8.4-4.1,10.9-10.6,6.9-19.1c-9-19.2-13.5-39.4-13.8-60.5c-0.1-8.5-5.3-13.4-13.9-13.5C140.8,89.5,133.4,89.5,125.9,89.5z"/>
	<path class="st1" d="M219.6,408.8c4.5-1.5,9.3-1.4,13.9-2.1C318.7,393.9,385.2,332,404.1,248c1.9-8.3,3.1-16.7,3.9-25.2
		c0.1-0.9-0.3-1.9,0.8-2.5c0,61.7,0,123.4,0.1,185.2c0,2.7-0.5,3.3-3.3,3.3C343.6,408.8,281.6,408.8,219.6,408.8z"/>
	<path class="st2" d="M125.9,89.5c7.4,0,14.9,0,22.3,0c8.6,0.1,13.8,5,13.9,13.5c0.3,21.2,4.8,41.3,13.8,60.5
		c4,8.4,1.5,14.9-6.9,19.1c-5,2.5-10,4.9-15.1,7.2c-2,0.9-2.1,1.7-1,3.5c15.7,26,36.5,46.9,62.5,62.6c2,1.2,2.8,1,3.7-1.1
		c2.3-5.2,4.9-10.3,7.4-15.4c3.8-7.7,10.5-10.2,18.3-6.6c19.6,9.2,40.1,13.7,61.7,14c7.5,0.1,12.7,5.4,12.8,13
		c0.1,15.6,0.1,31.1,0,46.7c-0.1,7.6-5.6,12.9-13.3,12.9c-40.8-0.3-78.8-10.8-113.4-32.5c-48.1-30.2-79.9-72.8-95.4-127.5
		c-5.2-18.4-7.6-37.2-7.6-56.3c0-7.9,5.3-13.3,13.2-13.4C110.5,89.4,118.2,89.5,125.9,89.5z"/>
</g>
</svg>
