<?xml version="1.0" encoding="utf-8"?>
<!-- Generator: Adobe Illustrator 26.3.1, SVG Export Plug-In . SVG Version: 6.00 Build 0)  -->
<svg version="1.1" id="Слой_1" xmlns="http://www.w3.org/2000/svg" xmlns:xlink="http://www.w3.org/1999/xlink" x="0px" y="0px"
	 viewBox="0 0 1366 316.4" style="enable-background:new 0 0 1366 316.4;" xml:space="preserve">
<style type="text/css">
	.st0{fill:#3186EE;}
	.st1{fill:#2C7BD9;}
	.st2{fill:#F7C011;}
	.st3{fill:#E1B50D;}
	.st4{fill:#213864;}
</style>
<g>
	<g>
		<polyline class="st0" points="1258.7,0 1194.8,132.4 1302.2,132.4 1366,0 		"/>
		<polyline class="st1" points="1258.7,236.9 1194.8,132.1 1302.2,132.1 1366,236.9 		"/>
	</g>
	<g>
		<polyline class="st2" points="0,88.5 63.8,221 171.2,221 107.3,88.5 		"/>
		<polyline class="st3" points="0,316.4 63.8,220.7 171.2,220.7 107.3,316.4 		"/>
	</g>
	<g>
		<path class="st4" d="M350.1,154.9l-2.8-2.5l5.3,2v5.5h-19.3v-5.5l4.9-1.8l-1,1.5l-2.2-7.4l1.7,1.4H321l1.2-1.3l-2.3,7.1l-0.3-1.1
			l4.6,1.6v5.5h-17.3v-5.5l5.1-1.9l-2.5,2.2l14.9-40l11.5-0.3L350.1,154.9z M323.8,141.9l-0.7-1.5H335l-1.1,1.7l-5.8-21.8l2.6,0.1
			L323.8,141.9z"/>
		<path class="st4" d="M385.1,125.4l-0.4,14.8h-6.5L377,132l1.3,1.3h-10l0.5-1.1v22l-1.2-1.5l6.2,1.6v5.5H354v-5.5l4.9-1.6l-1,1.5
			v-23.1l1.2,1.7L354,131v-5.5l12.4-0.3h18.7V125.4z"/>
		<path class="st4" d="M402.8,160.7c-3.2,0-6-0.7-8.5-2c-2.4-1.3-4.3-3.3-5.6-5.8c-1.3-2.6-2-5.8-2-9.6c0-3.9,0.7-7.3,2.1-10.1
			c1.4-2.8,3.4-4.9,6-6.4s5.7-2.2,9.3-2.2c3.5,0,6.3,0.7,8.5,2c2.2,1.3,3.8,3.2,4.8,5.5s1.5,5,1.5,7.9c0,0.8,0,1.6-0.1,2.5
			s-0.2,1.7-0.4,2.6h-22.8v-6h13.6l-1.5,1.1c0-1.7-0.1-3.1-0.3-4.3c-0.3-1.2-0.7-2.1-1.4-2.7c-0.7-0.6-1.6-0.9-2.7-0.9
			c-1.4,0-2.5,0.4-3.3,1.3c-0.8,0.9-1.3,2-1.6,3.4c-0.3,1.4-0.5,3-0.5,4.6c0,2.1,0.2,3.9,0.6,5.6s1.2,3,2.3,4s2.7,1.5,4.6,1.5
			c1.3,0,2.8-0.2,4.4-0.7s3.3-1.2,5-2.2l3.6,5.6c-2.6,1.8-5.2,3.1-7.8,3.9C408,160.3,405.4,160.7,402.8,160.7z"/>
		<path class="st4" d="M422.2,159.9v-5.5l6-2.1l-2.1,3.4v-25.5l2.8,3.5l-6.7-2.4v-5.5l18.4-0.5v5.5l-5.8,2.4l2.3-3.2v11.2l-2.8-2.9
			h16.2l-2.8,2.9v-11l1.7,2.8l-5.2-1.7v-5.5l18.4-0.5v5.5l-6,2.4l2.1-3.2v25.8l-2.1-3.4l6,2.1v5.5h-18.4v-5.5l5.3-1.8l-1.7,3.1
			v-12.6l2.8,2.9h-16.3l2.8-2.9v12.6l-1.8-3.2l5.3,1.8v5.5H422.2z"/>
		<path class="st4" d="M507.6,154.2l0.1,17.1h-6.8l-2.2-12.5l1.7,1h-34.7v-5.5l6-2.1l-2.1,3.4v-25.5l2.8,3.5l-6.7-2.4v-5.5l18.2-0.5
			v5.5l-5.6,2.4l2.3-3.2v25.4l-2.8-3.3h15.5l-2.8,3.3v-25.1l1.7,2.8l-5-1.7v-5.5l18.2-0.5v5.5l-6,2.4l2.1-3.2v25.8l-2.2-3.2
			L507.6,154.2z"/>
		<path class="st4" d="M524.5,153.7l-0.7-0.9l4.6,1.6v5.5h-18.7v-5.5l4.6-1.6l-0.7,0.9v-21.6l0.6,0.6l-4.6-1.5v-5.5l14.8-0.5v28.5
			H524.5z M518.8,121.1c-1.8,0-3.3-0.5-4.5-1.6c-1.1-1-1.7-2.6-1.7-4.5c0-2.1,0.6-3.6,1.8-4.6s2.7-1.5,4.5-1.5s3.2,0.5,4.4,1.5
			c1.2,1,1.7,2.5,1.7,4.6c0,2-0.6,3.5-1.8,4.6C522,120.6,520.6,121.1,518.8,121.1z"/>
		<path class="st4" d="M529.7,159.9v-5.5l4.7-1.4l-1.6,1.5l2.2-5.1c0.6-1.4,1.6-2.4,2.9-2.9s2.9-0.8,4.7-0.9l1.2,0.7
			c-3.7,0-6.4-0.9-8.2-2.7c-1.8-1.8-2.7-4.1-2.7-6.9c0-2.3,0.5-4.3,1.4-6c0.9-1.7,2.4-3,4.4-3.9c1.9-0.9,4.4-1.4,7.4-1.4h19.3v5.5
			l-4.9,1.8l1-0.9V154l-0.8-1.3l4.7,1.6v5.5h-18.2v-5.5l4.2-1.4l-0.8,1.2v-7.4l0.8,0.8h-2.7c-1,0-1.9,0.3-2.5,0.8
			c-0.6,0.5-1.1,1.3-1.5,2.4l-3.1,9.1L529.7,159.9L529.7,159.9z M550.6,142.3v-10.8l0.8,0.8h-3.7c-1.2,0-2.2,0.3-3,1
			c-0.7,0.7-1.1,1.8-1.1,3.4s0.4,2.8,1.2,3.5c0.8,0.7,1.9,1.1,3.3,1.1h3.3L550.6,142.3z"/>
		<path class="st4" d="M579,174.7v-5.5l5.3-2l-1.3,1.7v-37.4l1.2,1.4l-5.1-1.8v-5.5l12.4-0.6l1.2,5.6l-1.2-0.6
			c2-1.8,3.9-3.2,5.8-4.1c1.9-0.9,3.9-1.4,5.9-1.4c2.5,0,4.7,0.7,6.6,2c1.9,1.3,3.4,3.2,4.4,5.7c1.1,2.5,1.6,5.6,1.6,9.4
			c0,4.2-0.7,7.8-2.2,10.6c-1.4,2.8-3.4,5-6,6.4c-2.6,1.4-5.6,2.2-9,2.2c-1,0-2-0.1-3-0.2c-1-0.2-2-0.3-3.1-0.5l1.3-1.2v10l-1-1.5
			l5.6,1.8v5.5H579z M597.2,153.1c2.7,0,4.6-0.9,5.7-2.8c1.1-1.9,1.7-4.4,1.7-7.5c0-2.1-0.2-3.9-0.7-5.5s-1.1-2.7-1.9-3.6
			s-1.8-1.3-3.1-1.3c-1,0-2,0.3-3,0.8s-2.1,1.3-3.3,2.3l1.3-2.8v21.6l-1.3-2.1C594.3,152.9,595.9,153.1,597.2,153.1z"/>
		<path class="st4" d="M635,160.7c-3.2,0-6-0.7-8.5-2c-2.4-1.3-4.3-3.3-5.6-5.8c-1.3-2.6-2-5.8-2-9.6c0-3.9,0.7-7.3,2.1-10.1
			c1.4-2.8,3.4-4.9,6-6.4c2.6-1.5,5.7-2.2,9.3-2.2c3.5,0,6.3,0.7,8.5,2s3.8,3.2,4.8,5.5s1.5,5,1.5,7.9c0,0.8,0,1.6-0.1,2.5
			c-0.1,0.9-0.2,1.7-0.4,2.6h-22.8v-6h13.6l-1.5,1.1c0-1.7-0.1-3.1-0.3-4.3c-0.3-1.2-0.7-2.1-1.4-2.7c-0.7-0.6-1.6-0.9-2.7-0.9
			c-1.4,0-2.5,0.4-3.3,1.3s-1.3,2-1.6,3.4c-0.3,1.4-0.5,3-0.5,4.6c0,2.1,0.2,3.9,0.6,5.6c0.4,1.7,1.2,3,2.3,4s2.7,1.5,4.6,1.5
			c1.3,0,2.8-0.2,4.4-0.7c1.6-0.5,3.3-1.2,5-2.2l3.6,5.6c-2.6,1.8-5.2,3.1-7.8,3.9C640.2,160.3,637.6,160.7,635,160.7z"/>
		<path class="st4" d="M685.5,125.4l-0.4,14.8h-6.5l-1.2-8.2l1.3,1.3h-10l0.5-1.1v22l-1.2-1.5l6.2,1.6v5.5h-19.8v-5.5l4.9-1.6
			l-1,1.5v-23.1l1.2,1.7l-5.1-1.8v-5.5l12.4-0.3h18.7V125.4z"/>
		<path class="st4" d="M702.7,153.7l-0.7-0.9l4.6,1.6v5.5h-18.7v-5.5l4.6-1.6l-0.7,0.9v-21.6l0.6,0.6l-4.6-1.5v-5.5l14.8-0.5v28.5
			H702.7z M697,121.1c-1.8,0-3.3-0.5-4.5-1.6c-1.1-1-1.7-2.6-1.7-4.5c0-2.1,0.6-3.6,1.8-4.6s2.7-1.5,4.5-1.5s3.2,0.5,4.4,1.5
			c1.2,1,1.7,2.5,1.7,4.6c0,2-0.6,3.5-1.8,4.6C700.2,120.6,698.8,121.1,697,121.1z"/>
		<path class="st4" d="M726.3,124.6c5.3,0,9.4,1.5,12.3,4.5c2.9,3,4.3,7.3,4.3,12.9c0,3.9-0.7,7.2-2.2,10c-1.4,2.8-3.5,4.9-6.1,6.4
			c-2.7,1.5-5.8,2.2-9.5,2.2c-5.3,0-9.3-1.5-12.2-4.5c-2.8-3-4.3-7.3-4.3-12.9c0-3.9,0.7-7.3,2.1-10.1c1.4-2.8,3.4-4.9,6-6.4
			C719.3,125.2,722.6,124.6,726.3,124.6z M725.8,132.2c-2.1,0-3.5,0.8-4.4,2.5c-0.9,1.6-1.3,4.3-1.3,8.1s0.4,6.4,1.3,8
			c0.9,1.6,2.3,2.4,4.3,2.4c1.4,0,2.5-0.4,3.4-1.1s1.5-1.9,1.9-3.5s0.6-3.6,0.6-6c0-3.7-0.4-6.3-1.3-7.9
			C729.3,133,727.8,132.2,725.8,132.2z"/>
		<path class="st4" d="M745.9,159.9v-5.5l6-2.1l-2.1,3.4v-25.5l2.8,3.5l-6.7-2.4v-5.5l18.4-0.5v5.5l-5.8,2.4l2.3-3.2v11.2l-2.8-2.9
			h16.2l-2.8,2.9v-11l1.7,2.8l-5.2-1.7v-5.5l18.4-0.5v5.5l-6,2.4l2.1-3.2v25.8l-2.1-3.4l6,2.1v5.5h-18.4v-5.5l5.3-1.8l-1.7,3.1
			v-12.6l2.8,2.9h-16.2l2.8-2.9v12.6l-1.7-3.1l5.3,1.8v5.5L745.9,159.9L745.9,159.9z"/>
		<path class="st4" d="M819.9,154.5l-1.5-2.2l5.4,2.1v5.5l-12.5,0.6l-1.3-6.1l0.6,0.2c-1.5,2.1-3.3,3.6-5.2,4.6s-4,1.5-6.2,1.5
			c-3,0-5.3-0.9-7.2-2.8c-1.8-1.9-2.7-4.4-2.7-7.7c0-2.4,0.5-4.3,1.6-5.8s2.6-2.6,4.7-3.2c2.1-0.7,4.6-1,7.7-1h6.3l-0.6,0.6v-3.3
			c0-1.8-0.4-3.1-1.3-3.9c-0.8-0.8-2.1-1.2-3.8-1.2c-0.8,0-1.6,0.1-2.5,0.2s-1.9,0.3-2.9,0.6l1-1.1l-1,4.9h-6.7l-0.5-10.1
			c3.1-0.9,6-1.5,8.6-1.9s5-0.6,7.1-0.6c4.3,0,7.5,0.9,9.7,2.7c2.2,1.8,3.3,4.5,3.3,8.3L819.9,154.5L819.9,154.5z M800.2,149
			c0,1.4,0.3,2.4,1,3c0.6,0.7,1.5,1,2.4,1s1.9-0.3,2.9-0.8s2-1.2,2.9-2.2l-0.4,1.5v-6.9l0.6,0.7H805c-1.8,0-3,0.3-3.8,0.8
			C800.6,146.8,800.2,147.8,800.2,149z"/>
		<path class="st4" d="M832.1,160.6c-0.9,0-1.9-0.1-3-0.3c-1-0.2-2.2-0.5-3.4-0.8l1.6-8.4c0.4,0,0.8,0.1,1.2,0.1s0.7,0.1,1.1,0.1
			c2.1,0,3.6-0.8,4.7-2.4c1-1.6,1.7-4,2-7.1c0.3-3.2,0.5-7.1,0.6-11.7l2.8,3.2l-7.1-2.4v-5.5h33v5.5l-6,2.3l2.1-3.4v23.8l-0.8-0.9
			l4.6,1.6v5.5h-18.7v-5.5l4.6-1.6l-0.7,0.9v-23.4l1.7,3.1h-10.5l3.1-3c0,4.6-0.3,8.7-0.6,12.4c-0.4,3.7-1,6.9-2,9.5
			c-0.9,2.6-2.2,4.7-3.9,6.1C836.9,159.9,834.8,160.6,832.1,160.6z"/>
		<path class="st4" d="M868.8,159.9v-5.5l4.6-1.6l-0.7,0.9v-22.8l1.2,2l-5.1-1.7v-5.5l19.6-0.5v5.5l-6.5,1.9l1.7-1.7v6.9l-1.7-1.3
			h6.7c4.2,0,7.5,0.9,9.9,2.8c2.4,1.8,3.5,4.7,3.5,8.7c0,3.9-1.3,6.8-3.9,8.9c-2.6,2.1-6.7,3.1-12.4,3.1L868.8,159.9L868.8,159.9z
			 M883.6,154.2l-1.7-1.4h3.5c2,0,3.4-0.4,4.3-1.2c0.9-0.8,1.3-2,1.3-3.6c0-1.5-0.4-2.7-1.2-3.4c-0.8-0.7-2.1-1.1-3.8-1.1h-4.2
			l1.7-1.3v12H883.6z"/>
		<path class="st4" d="M903.8,159.9v-5.5l6-2.1l-2.1,3.4v-25.5l2.8,3.5l-6.7-2.4v-5.5l18.4-0.5v5.5l-5.8,2.4l2.3-3.2v11.2l-2.8-2.9
			h16.2l-2.8,2.9v-11l1.7,2.8l-5.2-1.7v-5.5l18.4-0.5v5.5l-6,2.4l2.1-3.2v25.8l-2.1-3.4l6,2.1v5.5h-18.4v-5.5l5.3-1.8l-1.7,3.1
			v-12.6l2.8,2.9H916l2.8-2.9v12.6l-1.7-3.1l5.3,1.8v5.5L903.8,159.9L903.8,159.9z"/>
		<path class="st4" d="M964.6,124.6c5.3,0,9.4,1.5,12.3,4.5c2.9,3,4.3,7.3,4.3,12.9c0,3.9-0.7,7.2-2.2,10c-1.4,2.8-3.5,4.9-6.1,6.4
			c-2.7,1.5-5.8,2.2-9.5,2.2c-5.3,0-9.3-1.5-12.2-4.5c-2.8-3-4.3-7.3-4.3-12.9c0-3.9,0.7-7.3,2.1-10.1c1.4-2.8,3.4-4.9,6-6.4
			S961,124.6,964.6,124.6z M964.2,132.2c-2.1,0-3.5,0.8-4.4,2.5c-0.9,1.6-1.3,4.3-1.3,8.1s0.4,6.4,1.3,8c0.9,1.6,2.3,2.4,4.3,2.4
			c1.4,0,2.5-0.4,3.4-1.1s1.5-1.9,1.9-3.5s0.6-3.6,0.6-6c0-3.7-0.4-6.3-1.3-7.9C967.7,133,966.2,132.2,964.2,132.2z"/>
		<path class="st4" d="M1015.4,125.4l-0.4,14.8h-6.5l-1.2-8.2l1.3,1.3h-10l0.5-1.1v22l-1.2-1.5l6.2,1.6v5.5h-19.8v-5.5l4.9-1.6
			l-1,1.5v-23.1l1.2,1.7l-5.1-1.8v-5.5l12.4-0.3h18.7V125.4z"/>
		<path class="st4" d="M1034.5,124.6c5.3,0,9.4,1.5,12.3,4.5s4.3,7.3,4.3,12.9c0,3.9-0.7,7.2-2.2,10c-1.4,2.8-3.5,4.9-6.1,6.4
			c-2.7,1.5-5.8,2.2-9.5,2.2c-5.3,0-9.3-1.5-12.2-4.5c-2.8-3-4.3-7.3-4.3-12.9c0-3.9,0.7-7.3,2.1-10.1c1.4-2.8,3.4-4.9,6-6.4
			S1030.8,124.6,1034.5,124.6z M1034,132.2c-2.1,0-3.5,0.8-4.4,2.5c-0.9,1.6-1.3,4.3-1.3,8.1s0.4,6.4,1.3,8c0.9,1.6,2.3,2.4,4.3,2.4
			c1.4,0,2.5-0.4,3.4-1.1s1.5-1.9,1.9-3.5s0.6-3.6,0.6-6c0-3.7-0.4-6.3-1.3-7.9C1037.5,133,1036.1,132.2,1034,132.2z"/>
		<path class="st4" d="M254.8,251.7v-5.5l5.3-2l-1.3,1.7v-37.3l1.2,1.4l-5.1-1.8v-5.5l12.4-0.6l1.2,5.6l-1.2-0.6
			c2-1.8,3.9-3.2,5.8-4.1c1.9-0.9,3.9-1.4,5.9-1.4c2.5,0,4.7,0.7,6.6,2c1.9,1.3,3.4,3.2,4.4,5.7c1.1,2.5,1.6,5.6,1.6,9.4
			c0,4.2-0.7,7.8-2.2,10.6c-1.4,2.8-3.4,5-6,6.4s-5.6,2.2-9,2.2c-1,0-2-0.1-3-0.2c-1-0.2-2-0.3-3.1-0.5l1.3-1.2v10l-1-1.5l5.6,1.8
			v5.5L254.8,251.7L254.8,251.7z M273,230.1c2.7,0,4.6-0.9,5.7-2.8c1.1-1.9,1.7-4.4,1.7-7.5c0-2.1-0.2-3.9-0.7-5.5s-1.1-2.7-1.9-3.6
			c-0.8-0.9-1.8-1.3-3.1-1.3c-1,0-2,0.3-3,0.8s-2.1,1.3-3.3,2.3l1.3-2.8v21.6l-1.3-2.1C270.1,229.9,271.6,230.1,273,230.1z"/>
		<path class="st4" d="M312.2,201.6c5.3,0,9.4,1.5,12.3,4.5s4.3,7.3,4.3,12.9c0,3.9-0.7,7.2-2.2,10c-1.4,2.8-3.5,4.9-6.1,6.4
			c-2.7,1.5-5.8,2.2-9.5,2.2c-5.3,0-9.3-1.5-12.2-4.5c-2.8-3-4.3-7.3-4.3-12.9c0-3.9,0.7-7.3,2.1-10.1c1.4-2.8,3.4-4.9,6-6.4
			C305.3,202.4,308.5,201.6,312.2,201.6z M311.7,209.3c-2.1,0-3.5,0.8-4.4,2.5c-0.9,1.6-1.3,4.3-1.3,8.1s0.4,6.4,1.3,8
			s2.3,2.4,4.3,2.4c1.4,0,2.5-0.4,3.4-1.1s1.5-1.9,1.9-3.5s0.6-3.6,0.6-6c0-3.7-0.4-6.3-1.3-7.9
			C315.2,210.1,313.7,209.3,311.7,209.3z"/>
		<path class="st4" d="M343.6,237.8c-2.2,0-4.3-0.2-6.4-0.6c-2.1-0.4-4-1.1-5.8-1.9l2.1-6.7c1.5,0.7,3,1.2,4.6,1.6
			c1.6,0.4,3.1,0.5,4.6,0.5c1.2,0,2.2-0.1,3.2-0.4s1.7-0.7,2.3-1.3c0.6-0.6,0.8-1.4,0.8-2.5c0-0.8-0.2-1.5-0.6-2.1s-1-1-1.8-1.3
			c-0.8-0.3-1.8-0.4-3-0.4h-4.4v-6.3h4c2,0,3.4-0.3,4.3-1c0.9-0.7,1.3-1.6,1.3-2.9c0-1.4-0.4-2.4-1.3-2.9s-2-0.8-3.3-0.8
			c-0.9,0-1.8,0.1-2.8,0.3c-1,0.2-2,0.4-3.1,0.6l2-1.9l-1,5.1h-6.6l-0.3-9.1c2.2-0.6,4.5-1.1,6.7-1.4c2.3-0.4,4.5-0.5,6.6-0.5
			c2.6,0,5,0.3,7.1,0.9s3.8,1.6,5,2.9c1.2,1.3,1.9,3.1,1.9,5.2c0,2.6-0.9,4.6-2.8,6c-1.8,1.4-4.5,2.3-7.9,2.6l-0.4-0.7
			c4.1,0.2,7,1,8.9,2.4s2.8,3.4,2.8,5.9s-0.8,4.6-2.4,6.2s-3.6,2.8-6.2,3.5C349.1,237.4,346.4,237.8,343.6,237.8z"/>
		<path class="st4" d="M378,202.5h4.2c2.8,0,5.3,0.2,7.4,0.7c2.1,0.5,3.8,1.4,4.9,2.6c1.2,1.2,1.8,3,1.8,5.3c0,2.2-0.6,3.9-1.7,5
			c-1.1,1.2-2.7,2-4.7,2.4c-2,0.5-4.4,0.8-7.1,1l0.6-1c1.9,0,3.7,0.1,5.4,0.3c1.7,0.2,3.2,0.7,4.6,1.3c1.4,0.6,2.4,1.5,3.2,2.7
			c0.8,1.2,1.2,2.7,1.2,4.6c0,3.4-1.4,5.8-4.1,7.4c-2.8,1.5-6.7,2.3-11.8,2.3h-18.6v-5.5l4.6-1.6l-0.7,0.9v-21.6l0.6,0.6l-4.6-1.5
			v-5.5L378,202.5z M380,209.5h-3.7l1.7-1.6v9.7l-1.7-1.2h3.1c2.1,0,3.7-0.2,4.6-0.7s1.4-1.4,1.4-2.9c0-1.4-0.4-2.3-1.3-2.7
			C383.2,209.7,381.9,209.5,380,209.5z M380.3,229.8c2.1,0,3.6-0.3,4.6-0.8s1.4-1.6,1.4-3.2c0-1.4-0.4-2.4-1.1-3c-0.7-0.7-2-1-3.6-1
			h-5.3l1.7-1.3v10.8l-1.7-1.4h4V229.8z"/>
		<path class="st4" d="M400.5,236.9v-5.5l6-2.1l-2.1,2.2v-23.2l2.8,2.4l-6.7-2.4v-5.5l17.8-0.5v5.5l-5.8,2.4l2.2-2.1v13.5l-1.4-0.4
			l14.1-11l-0.6,1.3l-0.1-3.1l1.7,1.7l-5.2-1.7v-5.5l17.8-0.5v5.5l-6,2.4l2.1-2.1v23.5l-2.1-2.2l6,2.1v5.5h-17.8v-5.5l5.3-1.8
			l-1.7,1.9v-15.1l1.2,1.5l-13.9,11.7l0.8-1.5v3.3l-0.5-1.3l4,1.3v5.5h-17.9V236.9z"/>
		<path class="st4" d="M450.2,236.9v-5.5l6.9-1.8l-2.1,2.7v-23.5l2.3,1.6h-8.2l2.1-2.1l-1.7,6.9H443v-12.8h34.9v12.8h-6.5l-1.5-6.5
			l1.9,1.6h-8.1l2.2-1.6v23.5l-1.9-2.7l6.8,1.8v5.5h-20.6V236.9z"/>
		<path class="st4" d="M480.1,236.9v-5.5l5.1-1.7l-1.2,1.9v-23.8l1.5,2.1l-5.4-1.7v-5.5l18-0.5v5.5l-4.2,1.7l1-1.7v9.5l-1.7-2.2h8.3
			l-3.3,1.9l6-8.9l0.8,1.1l-4-0.9v-5.5l16.2-0.6v5.5l-5.1,1.3l2.8-1.6l-8.6,12.5l1-2.7l7.5,14.3l-1.5-1.3l4.7,1.3v5.5h-11.7L499,222
			l1.5,0.2h-7.4l1.7-0.3v9.6l-1-2l4.8,1.8v5.5h-18.5V236.9z"/>
		<path class="st4" d="M518.7,252l1-7.6c0.8,0.1,1.5,0.2,2.2,0.3c0.7,0,1.3,0.1,1.8,0.1c1.8,0,3.2-0.3,4.3-1c1.1-0.6,2.1-1.7,3-3
			c0.9-1.4,1.7-3.2,2.6-5.5l-0.4,3.5l-12.5-30.4l0.9,0.9l-3.5-1v-5.5l16.9-0.6v5.5l-3.9,1.3l0.5-0.9l7.4,22.5l-2.6-0.6l6.3-21.6
			l0.5,1l-3.9-1v-5.5l15.9-0.6v5.5l-3.9,1.3l1.4-0.8l-10.3,28.6c-0.9,2.6-2,4.8-3.1,6.8c-1.1,2-2.4,3.6-3.8,5c-1.4,1.3-3,2.4-4.9,3
			c-1.9,0.7-4,1-6.3,1C522.6,252.5,520.8,252.4,518.7,252z"/>
		<path class="st4" d="M588.2,237.8c-4.3,0-7.9-0.9-10.9-2.6s-5.3-4.3-6.9-7.7c-1.6-3.4-2.4-7.6-2.4-12.5c0-4,0.5-7.5,1.5-10.6
			c1-3,2.5-5.5,4.4-7.6c1.9-2,4.2-3.6,6.8-4.6s5.6-1.5,9-1.5c3.3,0,6.2,0.5,8.7,1.5c2.6,1,4.8,2.4,6.5,4.4c1.8,1.9,3.2,4.3,4.1,7.1
			c0.9,2.8,1.4,6,1.4,9.6c0,5.1-0.9,9.4-2.7,13.1c-1.8,3.7-4.4,6.5-7.7,8.4C596.7,236.7,592.7,237.8,588.2,237.8z M588.9,229.3
			c1.9,0,3.5-0.5,4.9-1.4c1.4-0.9,2.5-2.5,3.3-4.8c0.8-2.2,1.2-5.4,1.2-9.3c0-3.7-0.4-6.6-1.1-8.7s-1.8-3.7-3.1-4.6
			c-1.4-0.9-3.1-1.3-5.1-1.3c-1.9,0-3.5,0.4-4.9,1.3c-1.4,0.9-2.5,2.4-3.2,4.7c-0.7,2.2-1.1,5.4-1.1,9.4c0,3.6,0.3,6.5,1,8.6
			c0.7,2.2,1.7,3.7,3,4.7C585.3,228.8,586.9,229.3,588.9,229.3z"/>
		<path class="st4" d="M612.4,248.4l-0.3-17.3l7.7-1.7l-5.2,1.9c1.3-1,2.4-2.1,3.4-3.3s1.8-2.7,2.4-4.4c0.6-1.7,1.1-3.8,1.4-6.3
			s0.5-5.6,0.5-9.1l2.8,2.2L618,208v-5.5h33v5.5l-6,2.3l2.1-2.2v23l-2.1-1.6l8.3,1.8l-0.3,17h-6.6l-2.1-12.7l2.4,1.3h-28l2.4-1.3
			l-2.2,12.8H612.4z M624,230.6v-1.7h13.9l-1.7,1.7V208l1.7,2.4h-9.8l2-2.4c0,3.8-0.1,7.1-0.4,10s-0.9,5.4-1.7,7.4
			C627,227.5,625.7,229.3,624,230.6z"/>
		<path class="st4" d="M670.6,237.8c-3.2,0-6-0.7-8.5-2c-2.4-1.3-4.3-3.3-5.6-5.8c-1.3-2.6-2-5.8-2-9.6c0-3.9,0.7-7.3,2.1-10.1
			c1.4-2.8,3.4-4.9,6-6.4c2.6-1.5,5.7-2.2,9.3-2.2c3.5,0,6.3,0.7,8.5,2s3.8,3.2,4.8,5.5s1.5,5,1.5,7.9c0,0.8,0,1.6-0.1,2.5
			c-0.1,0.9-0.2,1.7-0.4,2.6h-22.8v-6H677l-1.5,1.1c0-1.7-0.1-3.1-0.3-4.3c-0.3-1.2-0.7-2.1-1.4-2.7c-0.7-0.6-1.6-0.9-2.7-0.9
			c-1.4,0-2.5,0.4-3.3,1.3s-1.3,2-1.6,3.4c-0.3,1.4-0.5,3-0.5,4.6c0,2.1,0.2,3.9,0.6,5.6c0.4,1.7,1.2,3,2.3,4s2.7,1.5,4.6,1.5
			c1.3,0,2.8-0.2,4.4-0.7c1.6-0.5,3.3-1.2,5-2.2l3.6,5.6c-2.6,1.8-5.2,3.1-7.8,3.9C675.8,237.3,673.2,237.8,670.6,237.8z"/>
		<path class="st4" d="M705.9,237.8c-3,0-5.8-0.7-8.2-2.1c-2.5-1.4-4.4-3.4-5.8-6.1c-1.4-2.7-2.1-5.9-2.1-9.7c0-3.5,0.5-6.4,1.6-8.8
			c1-2.3,2.4-4.2,4.2-5.6c1.8-1.4,3.7-2.4,5.8-3c2.1-0.6,4.3-0.9,6.5-0.9c2.3,0,4.5,0.3,6.6,0.8c2.2,0.5,3.9,1.1,5.1,1.6l-0.3,10.1
			h-7l-1-4.9l0.8,0.6c-0.5-0.2-1.1-0.3-1.9-0.4s-1.5-0.2-2.2-0.2c-1.7,0-3,0.4-4,1.3c-1,0.8-1.8,2-2.2,3.5c-0.4,1.5-0.7,3.3-0.7,5.3
			c0,2.3,0.3,4.2,0.9,5.8c0.6,1.6,1.5,2.7,2.6,3.5c1.1,0.8,2.4,1.2,3.9,1.2c1.3,0,2.7-0.3,4.1-0.8c1.4-0.5,3.1-1.3,4.8-2.3l3.5,5.5
			c-2.4,1.9-4.9,3.3-7.4,4.2C710.9,237.3,708.4,237.8,705.9,237.8z"/>
		<path class="st4" d="M722.5,236.9v-5.5l4.6-1.6l-0.7,0.9v-22.8l1.2,2l-5.1-1.7v-5.5l19.6-0.5v5.5l-6.5,1.9l1.7-1.7v6.9l-1.7-1.3
			h6.7c4.2,0,7.5,0.9,9.9,2.8c2.4,1.8,3.5,4.7,3.5,8.7c0,3.9-1.3,6.8-3.9,8.9c-2.6,2.1-6.7,3.1-12.4,3.1L722.5,236.9L722.5,236.9z
			 M737.4,231.2l-1.7-1.4h3.5c2,0,3.4-0.4,4.3-1.2c0.9-0.8,1.3-2,1.3-3.6c0-1.5-0.4-2.7-1.2-3.4c-0.8-0.7-2.1-1.1-3.8-1.1h-4.2
			l1.7-1.3v12H737.4z"/>
		<path class="st4" d="M757.5,236.9v-5.5l5.1-1.7l-1.2,1.9v-23.8l1.5,2.1l-5.4-1.7v-5.5l18-0.5v5.5l-4.2,1.7l1-1.7v9.5l-1.7-2.2h8.3
			l-3.3,1.9l6-8.9l0.8,1.1l-4-0.9v-5.5l16.2-0.6v5.5l-5.1,1.3l2.8-1.6l-8.6,12.5l1-2.7l7.5,14.3l-1.5-1.3l4.7,1.3v5.5h-11.6
			l-7.3-14.9l1.5,0.2h-7.4l1.7-0.3v9.6l-1-2l4.8,1.8v5.5h-18.6V236.9z"/>
		<path class="st4" d="M813.2,201.6c5.3,0,9.4,1.5,12.3,4.5c2.9,3,4.3,7.3,4.3,12.9c0,3.9-0.7,7.2-2.2,10c-1.4,2.8-3.5,4.9-6.1,6.4
			c-2.7,1.5-5.8,2.2-9.5,2.2c-5.3,0-9.3-1.5-12.2-4.5c-2.8-3-4.3-7.3-4.3-12.9c0-3.9,0.7-7.3,2.1-10.1c1.4-2.8,3.4-4.9,6-6.4
			S809.5,201.6,813.2,201.6z M812.7,209.3c-2.1,0-3.5,0.8-4.4,2.5c-0.9,1.6-1.3,4.3-1.3,8.1s0.4,6.4,1.3,8c0.9,1.6,2.3,2.4,4.3,2.4
			c1.4,0,2.5-0.4,3.4-1.1s1.5-1.9,1.9-3.5s0.6-3.6,0.6-6c0-3.7-0.4-6.3-1.3-7.9C816.2,210.1,814.7,209.3,812.7,209.3z"/>
		<path class="st4" d="M834.5,197.5c-1.5,0-2.7-0.5-3.5-1.4s-1.3-2.3-1.3-4s0.4-3.1,1.4-4c1-1,2.1-1.5,3.5-1.5
			c1.5,0,2.8,0.5,3.7,1.5s1.3,2.3,1.3,4s-0.5,3-1.5,4S835.8,197.5,834.5,197.5z M847.6,230.7l-0.7-0.9l4.6,1.6v5.5h-18.7v-5.5
			l4.6-1.6l-0.7,0.9v-21.6l0.6,0.6l-4.6-1.5v-5.5l14.8-0.5v28.5H847.6z M847.9,197.5c-1.5,0-2.7-0.5-3.5-1.4c-0.9-1-1.3-2.3-1.3-4
			s0.4-3.1,1.4-4c1-1,2.2-1.5,3.4-1.5c1.5,0,2.8,0.5,3.7,1.5s1.3,2.3,1.3,4s-0.5,3-1.5,4C850.4,197,849.2,197.5,847.9,197.5z"/>
		<path class="st4" d="M882.2,201.6c5.3,0,9.4,1.5,12.3,4.5c2.9,3,4.3,7.3,4.3,12.9c0,3.9-0.7,7.2-2.2,10c-1.4,2.8-3.5,4.9-6.1,6.4
			c-2.7,1.5-5.8,2.2-9.5,2.2c-5.3,0-9.3-1.5-12.2-4.5c-2.8-3-4.3-7.3-4.3-12.9c0-3.9,0.7-7.3,2.1-10.1c1.4-2.8,3.4-4.9,6-6.4
			S878.5,201.6,882.2,201.6z M881.7,209.3c-2.1,0-3.5,0.8-4.4,2.5c-0.9,1.6-1.3,4.3-1.3,8.1s0.4,6.4,1.3,8c0.9,1.6,2.3,2.4,4.3,2.4
			c1.4,0,2.5-0.4,3.4-1.1s1.5-1.9,1.9-3.5s0.6-3.6,0.6-6c0-3.7-0.4-6.3-1.3-7.9C885.2,210.1,883.7,209.3,881.7,209.3z"/>
		<path class="st4" d="M919.7,237.8c-4,0-7.3-1-9.9-2.9c-2.5-1.9-4.4-4.7-5.6-8.2s-1.8-7.7-1.8-12.6c0-4.2,0.5-8,1.4-11.4
			s2.4-6.3,4.5-8.8s4.8-4.4,8.1-5.7c3.4-1.3,7.5-2,12.3-2.1l-2,1.8l1.3-4.8h6.8l0.1,12.1c-3.9,0-7.1,0.1-9.7,0.3
			c-2.6,0.2-4.6,0.6-6.2,1.2c-1.5,0.6-2.7,1.5-3.4,2.7c-0.8,1.2-1.2,2.8-1.5,4.7c-0.2,1.9-0.4,4.4-0.4,7.4c0,2.4,0,4.6,0.1,6.5
			s0.3,3.6,0.5,5c0.3,1.4,0.7,2.6,1.2,3.5s1.1,1.6,1.9,2s1.7,0.7,2.8,0.7c2,0,3.5-0.7,4.4-2.2c0.9-1.4,1.4-3.5,1.4-6.1
			c0-2.2-0.3-4-0.8-5.4c-0.6-1.4-1.3-2.5-2.2-3.1c-0.9-0.7-2-1-3.3-1c-1.1,0-2.2,0.2-3.4,0.7c-1.2,0.4-2.4,1.1-3.6,2l-0.4-6.9
			c1.8-1.3,3.7-2.3,5.7-3c1.9-0.7,3.8-1,5.6-1c2.6,0,4.9,0.6,6.9,1.9c2.1,1.2,3.7,3.1,4.9,5.5s1.9,5.4,1.9,9c0,3.9-0.8,7.2-2.3,10
			c-1.5,2.7-3.6,4.8-6.3,6.2S923.1,237.8,919.7,237.8z"/>
		<path class="st4" d="M943.9,237.6c-0.9,0-1.9-0.1-3-0.3c-1-0.2-2.2-0.5-3.4-0.8l1.6-8.4c0.4,0,0.8,0.1,1.2,0.1s0.7,0.1,1.1,0.1
			c2.1,0,3.6-0.8,4.7-2.4c1-1.6,1.7-4,2-7.1c0.3-3.2,0.5-7.1,0.6-11.7l2.8,3.2l-7.1-2.4v-5.5h33v5.5l-6,2.3l2.1-3.4v23.8l-0.8-0.9
			l4.6,1.6v5.5h-18.7v-5.5l4.6-1.6l-0.7,0.9v-23.4l1.7,3.1h-10.5l3.1-3c0,4.6-0.3,8.7-0.6,12.4c-0.4,3.7-1,6.9-2,9.5
			c-0.9,2.6-2.2,4.7-3.9,6.1C948.6,236.9,946.5,237.6,943.9,237.6z"/>
		<path class="st4" d="M1011,231.5l-1.5-2.2l5.4,2.1v5.5l-12.5,0.6l-1.3-6.1l0.6,0.2c-1.5,2.1-3.3,3.6-5.2,4.6s-4,1.5-6.2,1.5
			c-3,0-5.3-0.9-7.2-2.8c-1.8-1.9-2.7-4.4-2.7-7.7c0-2.4,0.5-4.3,1.6-5.8s2.6-2.6,4.7-3.2c2.1-0.7,4.6-1,7.7-1h6.3l-0.6,0.6v-3.2
			c0-1.8-0.4-3.1-1.3-3.9c-0.8-0.8-2.1-1.2-3.8-1.2c-0.8,0-1.6,0.1-2.5,0.2s-1.9,0.3-2.9,0.6l1-1.1l-1,4.9h-6.7l-0.5-10.1
			c3.1-0.9,6-1.5,8.6-1.9s5-0.6,7.1-0.6c4.3,0,7.5,0.9,9.7,2.7c2.2,1.8,3.3,4.5,3.3,8.3L1011,231.5L1011,231.5z M991.4,226.1
			c0,1.4,0.3,2.4,1,3c0.6,0.7,1.5,1,2.4,1s1.9-0.3,2.9-0.8s2-1.2,2.9-2.2l-0.4,1.5v-6.9l0.6,0.7h-4.6c-1.8,0-3,0.3-3.8,0.8
			C991.7,223.9,991.4,224.8,991.4,226.1z"/>
		<path class="st4" d="M1032.9,237.8c-3,0-5.8-0.7-8.2-2.1c-2.5-1.4-4.4-3.4-5.8-6.1c-1.4-2.7-2.1-5.9-2.1-9.7
			c0-3.5,0.5-6.4,1.6-8.8c1-2.3,2.4-4.2,4.2-5.6s3.7-2.4,5.8-3s4.3-0.9,6.5-0.9c2.3,0,4.5,0.3,6.6,0.8c2.2,0.5,3.9,1.1,5.1,1.6
			l-0.3,10.1h-7l-1-4.9l0.8,0.6c-0.5-0.2-1.1-0.3-1.9-0.4c-0.8-0.1-1.5-0.2-2.2-0.2c-1.7,0-3,0.4-4,1.3c-1,0.8-1.8,2-2.2,3.5
			s-0.7,3.3-0.7,5.3c0,2.3,0.3,4.2,0.9,5.8c0.6,1.6,1.5,2.7,2.6,3.5s2.4,1.2,3.9,1.2c1.3,0,2.7-0.3,4.1-0.8c1.4-0.5,3.1-1.3,4.8-2.3
			l3.5,5.5c-2.4,1.9-4.9,3.3-7.4,4.2C1038,237.3,1035.4,237.8,1032.9,237.8z"/>
		<path class="st4" d="M1056.3,236.9v-5.5l6.9-1.8l-2.1,2.7v-23.5l2.3,1.6h-8.1l2.1-2.1l-1.7,6.9h-6.5v-12.8h34.9v12.8h-6.5
			l-1.5-6.5l1.9,1.6h-8.1l2.2-1.6v23.5l-1.9-2.7l6.8,1.8v5.5h-20.7V236.9z"/>
		<path class="st4" d="M1101,230.7l-0.7-0.9l4.6,1.6v5.5h-18.7v-5.5l4.6-1.6l-0.7,0.9v-21.6l0.6,0.6l-4.6-1.5v-5.5l14.8-0.5v28.5
			H1101z M1095.3,198.2c-1.8,0-3.3-0.5-4.5-1.6c-1.1-1-1.7-2.6-1.7-4.5c0-2.1,0.6-3.6,1.8-4.6c1.2-1,2.7-1.5,4.5-1.5
			c1.8,0,3.2,0.5,4.4,1.5c1.2,1,1.7,2.5,1.7,4.6c0,2-0.6,3.5-1.8,4.6C1098.5,197.6,1097.1,198.2,1095.3,198.2z"/>
	</g>
</g>
</svg>
