<?xml version="1.0" encoding="UTF-8"?><svg id="_лой_1" xmlns="http://www.w3.org/2000/svg" viewBox="0 0 400 400"><defs><style>.cls-1{fill:none;}</style></defs><g><path d="M333.92,144.61v59.78c-.43,.02-.86,.05-1.3,.05H70.16c-.74,0-1.49-.1-2.22-.15-.07-.45-.15-.7-.15-.95,0-18.62-.12-37.25,.1-55.87,.04-3.44,.86-7.16,2.37-10.23,4.51-9.12,12.15-13.57,22.41-13.53,15.94,.06,31.88,.01,47.81,.01h3.28v-3.14c0-6.58-.06-13.17,.02-19.75,.1-8.7,5.37-14.94,13.57-15,29.1-.19,58.2-.16,87.31,.02,6.93,.04,12.44,5.28,12.92,12.21,.51,7.42,.26,14.88,.34,22.33,.01,1.01,0,2.03,0,3.33h4.65c16.28,.03,32.57,0,48.85,.11,5.2,.03,9.72,2.03,13.76,5.33,4.94,4.04,7.52,9.34,8.73,15.45h.01Zm-170.89-39.86v18.81h75.65v-18.81h-75.65Z"/><path d="M333.92,218.95v73.81c-.77,2.46-1.2,5.1-2.36,7.36-4.81,9.37-12.63,13.68-23.17,13.67-71.72-.06-143.44-.03-215.15-.06-2.32,0-4.72-.09-6.95-.64-11.45-2.8-18.47-11.97-18.49-24.1-.04-22.61-.01-45.21,0-67.82,0-.75,.08-1.51,.13-2.29h99.66v2.91c0,6.76-.04,13.51,.02,20.27,.05,5.62,3.67,9.44,9.26,9.9,.52,.04,1.04,.05,1.56,.05,14.98,0,29.97,.03,44.95,0,6.98-.02,10.73-3.85,10.74-10.81,.01-6.24,0-12.47,0-18.71v-3.74h97.48c.77,0,1.54,.13,2.31,.19v.02Z"/><path d="M219.77,218.98v18.53h-37.77v-18.53h37.77Z"/></g><rect class="cls-1" width="400" height="400"/></svg>