<?xml version="1.0" encoding="utf-8"?>
<!-- Generator: Adobe Illustrator 26.3.1, SVG Export Plug-In . SVG Version: 6.00 Build 0)  -->
<svg version="1.1" id="_лой_1" xmlns="http://www.w3.org/2000/svg" xmlns:xlink="http://www.w3.org/1999/xlink" x="0px" y="0px"
	 viewBox="0 0 400 400" style="enable-background:new 0 0 400 400;" xml:space="preserve">
<style type="text/css">
	.st0{fill:#F4B400;}
	.st1{fill:none;}
</style>
<g>
	<path class="st0" d="M333.9,144.6v59.8c-0.4,0-0.9,0.1-1.3,0.1H70.2c-0.7,0-1.5-0.1-2.2-0.1c-0.1-0.4-0.2-0.7-0.2-0.9
		c0-18.6-0.1-37.2,0.1-55.9c0-3.4,0.9-7.2,2.4-10.2c4.5-9.1,12.2-13.6,22.4-13.5c15.9,0.1,31.9,0,47.8,0h3.3v-3.1
		c0-6.6-0.1-13.2,0-19.8c0.1-8.7,5.4-14.9,13.6-15c29.1-0.2,58.2-0.2,87.3,0c6.9,0,12.4,5.3,12.9,12.2c0.5,7.4,0.3,14.9,0.3,22.3
		c0,1,0,2,0,3.3h4.6c16.3,0,32.6,0,48.9,0.1c5.2,0,9.7,2,13.8,5.3C330.1,133.2,332.7,138.5,333.9,144.6L333.9,144.6L333.9,144.6z
		 M163,104.8v18.8h75.7v-18.8H163L163,104.8z"/>
	<path class="st0" d="M333.9,218.9v73.8c-0.8,2.5-1.2,5.1-2.4,7.4c-4.8,9.4-12.6,13.7-23.2,13.7c-71.7-0.1-143.4,0-215.1-0.1
		c-2.3,0-4.7-0.1-6.9-0.6c-11.4-2.8-18.5-12-18.5-24.1c0-22.6,0-45.2,0-67.8c0-0.8,0.1-1.5,0.1-2.3h99.7v2.9c0,6.8,0,13.5,0,20.3
		c0.1,5.6,3.7,9.4,9.3,9.9c0.5,0,1,0.1,1.6,0.1c15,0,30,0,44.9,0c7,0,10.7-3.9,10.7-10.8c0-6.2,0-12.5,0-18.7v-3.7h97.5
		C332.4,218.7,333.1,218.9,333.9,218.9L333.9,218.9L333.9,218.9z"/>
	<path class="st0" d="M219.8,219v18.5H182V219H219.8z"/>
</g>
<rect class="st1" width="400" height="400"/>
</svg>
