<?xml version="1.0" encoding="utf-8"?>
<!-- Generator: Adobe Illustrator 26.3.1, SVG Export Plug-In . SVG Version: 6.00 Build 0)  -->
<svg version="1.1" id="Слой_1" xmlns="http://www.w3.org/2000/svg" xmlns:xlink="http://www.w3.org/1999/xlink" x="0px" y="0px"
	 viewBox="0 0 15 15" style="enable-background:new 0 0 15 15;" xml:space="preserve">
<style type="text/css">
	.st0{fill:#2C7BDA;}
</style>
<path class="st0" d="M15,3.8c0,0-0.1,0.1-0.1,0.1c-3.2,3.2-6.4,6.4-9.6,9.6c-0.1,0.1-0.1,0.1-0.2,0c-1.7-1.7-3.3-3.4-5-5
	C0,8.3,0,8.3,0.1,8.2c0.7-0.7,1.4-1.4,2.1-2.1C2.3,6,2.3,6,2.4,6.1C3.3,7,4.2,7.9,5.1,8.8c0.1,0.1,0.1,0.1,0.2,0
	c2.4-2.4,4.8-4.8,7.3-7.3c0.1-0.1,0.1-0.1,0.2,0c0.7,0.7,1.4,1.4,2.1,2.1C14.9,3.7,14.9,3.7,15,3.8C15,3.8,15,3.8,15,3.8z"/>
</svg>
