<?xml version="1.0" encoding="utf-8"?>
<!-- Generator: Adobe Illustrator 26.3.1, SVG Export Plug-In . SVG Version: 6.00 Build 0)  -->
<svg version="1.1" id="Слой_1" xmlns="http://www.w3.org/2000/svg" xmlns:xlink="http://www.w3.org/1999/xlink" x="0px" y="0px"
	 viewBox="0 0 40 40" style="enable-background:new 0 0 40 40;" xml:space="preserve">
<style type="text/css">
	.st0{fill:#F4B400;}
</style>
<path class="st0" d="M32.1,28.4l-7.8-7.8c-0.2-0.2-0.3-0.4-0.3-0.6c0-0.2,0.1-0.5,0.3-0.6l7.8-7.8c0.5-0.5,0.8-1.2,0.8-1.9
	c0-0.7-0.3-1.4-0.8-1.9C31.7,7.3,31,7,30.3,7.1s-1.4,0.4-1.8,0.9l-7.8,7.8C20.5,15.9,20.3,16,20,16c-0.2,0-0.5-0.1-0.6-0.3l-7.8-7.8
	c-0.5-0.5-1.2-0.8-1.9-0.8C9,7.1,8.3,7.4,7.7,7.9C7.3,8.4,7,9.1,7.1,9.8c0,0.7,0.4,1.4,0.9,1.8l7.8,7.8c0.2,0.2,0.3,0.4,0.3,0.6
	c0,0.2-0.1,0.5-0.3,0.6l-7.8,7.8c-0.5,0.5-0.8,1.2-0.8,1.9c0,0.7,0.3,1.4,0.8,1.9c0.5,0.5,1.2,0.7,1.9,0.7c0.7,0,1.4-0.4,1.8-0.9
	l7.8-7.8c0.2-0.2,0.4-0.3,0.6-0.3c0.2,0,0.5,0.1,0.6,0.3l7.8,7.8c0.5,0.5,1.1,0.8,1.8,0.9c0.7,0,1.4-0.2,1.9-0.7
	c0.5-0.5,0.8-1.2,0.8-1.9C32.9,29.6,32.6,28.9,32.1,28.4L32.1,28.4z"/>
</svg>
