<?xml version="1.0" encoding="UTF-8"?><svg id="_лой_1" xmlns="http://www.w3.org/2000/svg" viewBox="0 0 152.35 155.13"><defs><style>.cls-1{fill:#16c4fa;}.cls-2{fill:#fe8626;}.cls-3{fill:#fecc03;}.cls-4{fill:#259bf2;}.cls-5{fill:#5263e8;}.cls-6{fill:#4a62e7;}.cls-7{fill:#fe901f;}.cls-8{fill:#4666e8;}.cls-9{fill:#19b2f7;}.cls-10{fill:#377dec;}.cls-11{fill:#fe6905;}.cls-12{fill:#1fa6f4;}.cls-13{fill:#fe8703;}.cls-14{fill:#fe9503;}.cls-15{fill:#3088ee;}.cls-16{fill:#fe5908;}.cls-17{fill:#fea614;}.cls-18{fill:#3285ee;}.cls-19{fill:#fe9b19;}.cls-20{fill:#1ab0f6;}.cls-21{fill:#259af2;}.cls-22{fill:#fea403;}.cls-23{fill:#fe7604;}.cls-24{fill:#4568e8;}.cls-25{fill:#4d62e7;}.cls-26{fill:#2c8fef;}.cls-27{fill:#14bef9;}.cls-28{fill:#505ae5;}.cls-29{fill:#fec403;}.cls-30{fill:#456ae8;}.cls-31{fill:#febd04;}.cls-32{fill:#febe09;}.cls-33{fill:#fe911e;}.cls-34{fill:#febe0a;}.cls-35{fill:#377eec;}.cls-36{fill:#feae11;}.cls-37{fill:#3e73ea;}.cls-38{fill:#fe8625;}.cls-39{fill:#feb50d;}.cls-40{fill:#feb403;}.cls-41{fill:#feae10;}.cls-42{fill:#20a6f4;}.cls-43{fill:#3f72ea;}</style></defs><path class="cls-19" d="M102.87,80.1c4.48,2.05,8.93,4.17,13.01,6.97,1.15,4.53,.56,9.11,.17,13.64-.21,2.37-1.26,4.57-4.5,3.49-3.91-3.33-7.51-6.96-10.81-10.88,.86-4.38,.44-8.97,2.12-13.22Z"/><path class="cls-39" d="M130.87,95.08c2.95,.76,5.66,2.01,8,4.01,2.57,7.24,2.65,14.37-.88,21.36q-5.16,6.03-10.54-.22c2.91-5.09,1.58-10.68,1.93-16.08,.2-3.06-.82-6.35,1.5-9.07Z"/><path class="cls-15" d="M27.88,121.07c1.07,.18,1.97,.65,1.93,1.86-.27,7.51,.97,15.08-.79,22.54-2.33,2.35-4.66,4.69-6.99,7.04-2.01-1.78-1.62-4.21-1.65-6.46-.1-6.59,.02-13.18-.12-19.77-.16-2.74,1.57-4.06,3.8-5,1.25-.38,2.51-.91,3.83-.21Z"/><path class="cls-36" d="M130.87,95.08c0,6.75-.05,13.49,.02,20.24,.02,2.54-.3,4.66-3.44,4.9-2.31-2.33-4.61-4.66-6.92-6.98,1.16-5.17,.74-10.43,.9-15.66,.07-2.39-.34-5.05,2.42-6.47,2.7,.69,4.86,2.32,7.02,3.97Z"/><path class="cls-10" d="M20.83,125.04c1.99,2.13,.94,4.74,1,7.12,.19,6.78,.14,13.57,.19,20.36q-3.32,3.8-8.52-2.24c.03-7.19-.44-14.4,.62-21.56,.02-.55,.14-1.08,.36-1.59,1.79-1.68,3.59-3.33,6.34-2.08Z"/><path class="cls-17" d="M123.85,91.11c-2.06,5.46-.55,11.13-.96,16.69-.16,2.14,.26,4.41-2.37,5.43-3.28-2.72-6.28-5.73-8.97-9.04,3.2-.27,3.22-2.52,3.35-4.98,.21-4.05-.97-8.23,.97-12.15,.66,.01,1.31,.02,1.97,.03,2,1.34,4,2.67,6,4.01Z"/><path class="cls-4" d="M36.88,98.08c1.84,4.98,1.06,10.16,.84,15.22-.16,3.86-4.27,4.16-6.84,5.78-3.8-4.42-2.68-9.18-.98-13.99,1.99-2.67,4.31-5.01,6.98-7.01Z"/><path class="cls-34" d="M137.99,120.44c1.6-7.07,.6-14.24,.88-21.36,6.82,.61,8.01,5.9,9.27,11.14-3.07,3.72-6.47,7.1-10.14,10.22Z"/><path class="cls-43" d="M14.78,128.02c-.04,7.44,1.39,14.96-1.28,22.25-1.25-1.26-2.5-2.53-3.75-3.79-2.31-4.93-.75-10.18-1.22-15.26,1.09-3,3.1-4.23,6.26-3.2Z"/><path class="cls-18" d="M53.87,120.04c-1.99-1.36-2.03-3.36-2.04-5.52,0-1.83,.75-3.88-.95-5.45,.11-3.09,3.18-2.66,4.77-4.01,1.21-.61,2.45-1,3.8-.45,2.47,2.46,2.02,5.42,1.41,8.4-1.96,2.71-3.87,5.48-6.99,7.03Z"/><path class="cls-42" d="M29.9,105.08c.34,4.66-.74,9.42,.98,13.99-1,.67-2,1.34-3,2-1,.33-2,.66-3,.99-3.67-2.73-2.19-6.48-1.95-9.97,1.98-2.68,4.32-5,6.97-7.01Z"/><path class="cls-9" d="M22.93,112.09c2.28,3.01-.27,6.96,1.95,9.97-1.45,.86-3.24,1.24-4.04,2.97-1.97,.69-3.94,1.39-5.92,2.08-2.99-1.86-2.31-3.97-.38-6.12,1.76-1.97,3.89-3.62,5.36-5.85,.71-1.32,1.71-2.34,3.03-3.04Z"/><path class="cls-6" d="M73.92,84.97c1.3,.71,2.3,1.72,3,3.02,.44,1.44-.66,1.71-1.58,1.81-1.81,.19-3.18,.61-3.17,2.85,.01,2.44,1.5,2.98,3.51,3.11,.78,.05,1.69,.24,1.24,1.46-.7,1.3-1.71,2.3-3,3.01-2.28-.66-4.46,.11-6.68,.47-.5-.05-.96-.23-1.38-.51-.88-5.02-.63-10.06-.13-15.09,.36-.31,.79-.51,1.26-.6,2.28,.39,4.52,1.52,6.9,.46Z"/><path class="cls-28" d="M76.94,97.22c-2.26-.97-6.68,1.62-6.13-4.01,.3-3.05-.35-6.35,4.56-4.32,.34,.14,1.03-.58,1.56-.9,5.97,5.14,5.82,4.17,.02,9.23Z"/><path class="cls-1" d="M19.9,115.14c-.15,2.46-2.17,3.63-3.68,5.03-2.26,2.08-3.04,4.22-1.3,6.94-.04,.3-.08,.61-.13,.91-2.22,.54-4.25,1.47-5.95,3.03-.42,.88-1.2,1.36-1.98,1.86-2.2,.9-3.83,3.62-6.78,2.14,6.26-6.99,12.88-13.61,19.82-19.91Z"/><path class="cls-25" d="M.07,135.05c2.27-.99,4.54-1.98,6.82-2.97,2.78,3.83,1.91,7.62-.14,11.39-2.23-2.8-6.65-3.86-6.68-8.41Z"/><path class="cls-24" d="M6.75,143.47l.14-11.39c.65-.34,1.3-.69,1.94-1.03,2.4,.28,1.05,1.94,1.05,3.02,0,4.14-.08,8.27-.13,12.41-1-1-2-2.01-3-3.01Z"/><path class="cls-35" d="M60.86,113.02c-1.98-2.32,.17-5.66-1.99-7.93-.37-1.68,.98-2.03,2.01-2.62,.45-.14,.92-.2,1.4-.19,3.17,.79,2.58,3.91,3.67,5.99-1.47,1.83-2.76,3.86-5.1,4.76Z"/><path class="cls-37" d="M65.96,108.26c-3.18-.29-.85-4.93-4.09-5.18,.33-3.23,3.28-2.09,5-2.99,.33,0,.67,0,1,0,2.16-.05,3.22,.96,3.07,3.15-1.35,1.99-3.02,3.65-4.99,5.02Z"/><path class="cls-30" d="M67.88,85.09c1.34-1.05,1.86-2.52,2.05-4.14,1.63,1.04,2.98,2.36,4,4.01-1.95,3.44-3.99,1.97-6.05,.12Z"/><path class="cls-30" d="M70.95,103.23c-1.02-1.05-2.05-2.1-3.07-3.15,2.05-1.15,4.13-3.33,6.07,.15-.7,1.3-1.7,2.29-2.99,3Z"/><path class="cls-30" d="M60.88,103.09v-21c.33,0,.66,0,1,0,1.13,1.9,3.69,1.41,5,2.99,0,5,0,10,0,15-1.13,1.9-3.69,1.41-5,2.99-.33,0-.67,0-1,0Z"/><path class="cls-26" d="M53.87,120.04c-7.59,9.15-16.35,17.18-24.85,25.44-1.3-4.32-.18-8.74-.5-13.1-.27-3.6,.31-7.26-.88-10.79-.3-2.03,1.27-2.71,2.58-3.58,5.19-1.7,6.91-5.32,6.49-10.64-.25-3.05-.81-6.21,.17-9.29q4.56-5.47-.03-10.96c-.55-3.27-.5-6.6-.22-9.86,.42-5-1.49-8.25-6.18-9.93-1.34-.87-2.97-1.51-2.83-3.55,1.17-7.44,1.74-14.89-.06-22.32-.24-.99-.39-1.92,.46-2.71,8.86,8.57,17.92,16.95,25.85,26.42-.87,3.77,.46,8-2.39,11.34-.48,.19-.98,.26-1.5,.23-3.46-1.48-4.87-.81-4.88,3.42-.01,8.39-.17,16.77,.03,25.17,.09,3.9,1.4,4.69,4.72,3.16,.53-.07,1.04-.01,1.54,.16,3.02,3.33,1.66,7.61,2.49,11.41Z"/><path class="cls-29" d="M129.87,83.11c7.36,6.65,14.28,13.73,20.77,21.23,3.15,3.64-1.36,4.05-2.5,5.88-1.5,.57-1.8-.7-1.83-1.53-.22-4.98-3.45-7.26-7.59-8.81-2.6-1.45-5.29-2.71-7.97-4.01-2.43-1.22-4.71-2.73-7.2-3.84-2.15-1.3-4.57-2.23-6.15-4.34-3.94-5.6-10.03-8.62-15.31-12.56-5.85-4.37-11.61-8.87-17.66-12.97-1.8-1.22-3.58-2.55-3.2-5.17,.24-.72,.71-1.22,1.41-1.52,2.18-.54,3.91,.58,5.49,1.75,16.65,12.29,33.64,24.13,50.01,36.8-2.29-2.02-4.68-3.95-6.7-6.26-1.13-1.3-2.92-2.49-1.57-4.67Z"/><path class="cls-31" d="M129.87,83.11c1.16,4.13,5.1,5.94,7.53,9,1.19,1.51,3.06,2.45,4.25,5.61-8.83-6.45-16.74-12.24-24.65-18.01-9.61-7.01-19.24-14.01-28.85-21.04-1.61-1.18-3.19-2.41-5.29-2.58,.58-3.23,3.17-3.42,5.66-3.77,9.93,6.73,19.54,13.9,28.6,20.8-1.15-2.08-5.65-2.71-4.23-7.08,5.99,5.36,11.64,11.06,16.97,17.07Z"/><path class="cls-3" d="M81.86,57.05c.01,1.69,1.05,2.73,2.3,3.64,9.52,6.9,19.05,13.8,28.57,20.7,2.12,1.53,4.64,2.71,5.11,5.71-.56,.58-1.25,.69-2,.58-4.66-1.78-8.88-4.44-13.34-6.62-3.29-1.85-6.49-3.85-10.1-5.07-6.98-3.86-14.11-7.43-20.72-11.92-1.81-.97-1.92-1.95-.03-2.96,3.39-1.4,5.66-5.6,10.21-4.06Z"/><path class="cls-41" d="M120.49,11.94c2.66-2.68,5.31-5.35,7.97-8.03,3.46,.16,3.62,2.92,3.71,5.24,.25,6.71,.59,13.44-.36,20.14-.07,.57-.23,1.11-.46,1.64-1.94,2.05-4.18,3.56-7.08,3.9-.58-.08-1.1-.3-1.55-.67-1.57-1.97-1.25-4.33-1.3-6.59-.11-5.22,.34-10.47-.93-15.63Z"/><path class="cls-39" d="M130.93,30.13c-.02-6.71-.06-13.41-.05-20.12,0-2.37-.12-4.66-2.42-6.1q4.31-5.18,8.55-.24c5.18,6.87,3.28,14.57,2.61,22.13-1.82,3.58-4.83,4.8-8.69,4.32Z"/><path class="cls-15" d="M28,38.74c3.45,7.27,1.28,15.01,1.87,22.52,.11,1.46-.26,2.64-1.99,2.84-1.25,1.07-2.54,.48-3.83,.11-2.27-.97-3.87-2.43-3.77-5.14,.14-6.65,.02-13.29,.11-19.94,.03-2.13-.2-4.37,1.51-6.11,2.71,1.19,4.28,3.59,6.12,5.72Z"/><path class="cls-19" d="M101.74,30.83c2.96-3.58,6.23-6.86,9.78-9.85,3.55-1.04,4.33,1.41,4.62,3.96,.47,4.06,.19,8.17,.3,12.25-.3,3.92-4,4.1-6.35,5.78-2.2,.68-4.22,2.98-6.77,.83-1.19-4.24-1.13-8.64-1.58-12.97Z"/><path class="cls-40" d="M112.89,66.04c.77,4.4,5.66,5.69,7.5,10.05-4.41-1.53-7.21-4.6-10.39-6.99-7.08-5.3-14.78-9.79-21.16-16.01,.07-2.56,2.37-2.7,3.95-3.63,.7-.22,1.42-.27,2.15-.16,3.18,1.15,5.35,3.75,8.02,5.65,3.33,2.37,6.75,3.94,10.93,3.16-1.89,2.45-5.56,4.67-.99,7.93Z"/><path class="cls-17" d="M115.87,38.11c-2.1-3.89-.65-8.08-.95-12.12-.18-2.48-.19-4.74-3.41-5,2.7-3.3,5.7-6.31,8.97-9.04,2.58,.97,2.25,3.19,2.42,5.32,.45,5.61-1.2,11.33,.95,16.84-.47,3.48-3.78,3.28-5.94,4.59-.77,.12-1.48,0-2.05-.59Z"/><path class="cls-10" d="M21.89,33.02c0,7.49,.03,14.98-.02,22.46-.01,1.6,.54,3.38-1.03,4.66-.66,.58-1.43,.66-2.25,.49-2.06-.86-4.22-1.63-4.25-4.45-.03-5.9,.44-11.8-.36-17.68-.23-1.71,.22-3.24,.78-4.79,2.14-2.64,4.17-6.47,7.13-.7Z"/><path class="cls-33" d="M94.86,50.08c-.66,.01-1.31,.03-1.97,.04-1.63-2.51-2.27-5.28-2.12-8.25,3.36-3.98,7.02-7.66,10.98-11.04,3.45,3.99,1.71,8.81,2.14,13.28,.46,1.51-.85,1.95-1.62,2.73-2.23,1.62-4.68,2.75-7.4,3.24Z"/><path class="cls-22" d="M94.86,50.08c1.97-1.98,4.7-2.62,7.02-3.98,2.96-1.35,4.42,1.3,6.29,2.54,3.31,2.19,6.15,5.29,10.7,4.47-1.33,2-3.01,3.65-4.98,5.01-4.82,4.27-8.07-.38-11.6-2.28-2.72-1.46-4.97-3.8-7.43-5.75Z"/><path class="cls-32" d="M138.9,26.12c-.01-3.21-.16-6.43,0-9.63,.22-4.42-.1-8.71-1.9-12.81,4.79,4.71,9.59,9.4,14.35,14.14,.62,.61,1.71,1.32,.32,2.28-4.05,2.45-7.32,6.57-12.78,6.03Z"/><path class="cls-7" d="M102.87,80.1c.18,4.55,1.31,9.25-2.12,13.22-3.63-3.04-6.95-6.4-9.97-10.04-.58-3.04-.55-5.91,2.08-8.13,3.77,.77,6.85,2.94,10.01,4.95Z"/><path class="cls-21" d="M30.88,66.1c5.88,1.68,7.96,5.66,7.01,11.51-.51,3.15,1.03,6.52-1.05,9.5-2.66-2.01-4.99-4.34-6.97-7.01-1.63-4.81-2.81-9.58,1.01-14Z"/><path class="cls-43" d="M14.75,33.72c1.46,6.2,1.14,12.51,1.11,18.8,0,1.59,.53,3.38-1.06,4.63-3.36,.92-5.52-.29-6.48-3.65,.35-4.93-.75-10.01,1.44-14.76,1.66-1.68,3.33-3.35,4.99-5.03Z"/><path class="cls-38" d="M90.76,41.87c2.12,2.39,2.36,5.26,2.12,8.25-1.35,.99-2.69,1.97-4.04,2.96-2.26,.47-4.29,1.4-5.98,3.01-.33,.32-.66,.64-1,.95-3.72,.56-6.44,3.63-10.21,4.06,6.04-6.74,12.44-13.12,19.11-19.23Z"/><path class="cls-14" d="M118.86,53.1c-3.06,2.06-5.58,.93-8.23-1.06-2.82-2.11-5.16-4.97-8.75-5.94,.67-.66,1.34-1.32,2-1.98,1.99-.68,3.99-1.35,5.98-2.03,1.98-.02,3.6,1.03,4.85,2.29,2.57,2.57,5.57,3.74,9.12,3.72-1.33,2-3,3.65-4.98,5.01Z"/><path class="cls-2" d="M92.86,75.15c-.69,2.71-1.39,5.42-2.08,8.13-6.66-6.1-13.06-12.47-19.08-19.21,7.62,2.61,14.29,7.05,21.17,11.08Z"/><path class="cls-13" d="M123.84,48.09c-3.21,1.99-5.73,1.55-8.2-1.55-1.47-1.85-3.82-2.99-5.78-4.46,2-1.33,4.01-2.66,6.01-3.98,.65-.01,1.31-.03,1.96-.04,3.98,.97,6.87,4.35,10.98,5.03-1.33,2-3.01,3.64-4.98,5Z"/><path class="cls-18" d="M50.88,76.09c1.74-1.64,.95-3.77,.94-5.67,0-2.1,.22-3.94,2.04-5.26,3.13,1.54,5.01,4.34,7,7.02,.61,2.99,1.05,5.96-1.43,8.43-1.62,.72-3.14,.36-4.61-.47-1.41-1.25-3.94-1.43-3.94-4.06Z"/><path class="cls-27" d="M8.84,54.13c1.71,1.56,3.73,2.49,5.96,3.01,1.36,.98,2.72,1.97,4.08,2.95,.39,2.63,.81,5.26-1.97,6.99C10.96,61.75,5.31,56.13,.04,50.13c2.1-1.41,3.37,.64,5,1.19,1.32,.86,2.96,1.31,3.8,2.81Z"/><path class="cls-16" d="M138.9,26.12c4.26-2.01,8.52-4.02,12.78-6.03-3.92,4.7-8.31,8.94-12.9,12.98-4.06,2.32-5.48,1.96-7.97-2.04,.03-.3,.07-.61,.12-.91,2.65-1.36,5.79-1.72,7.97-4.01Z"/><path class="cls-12" d="M30.88,66.1c-1.75,4.57-.59,9.34-1.01,14-2.66-2.01-4.99-4.34-6.98-7.01-.19-3.49-1.67-7.23,1.97-9.96,1.01,.32,2.01,.64,3.02,.96,1,.67,2,1.34,3,2Z"/><path class="cls-23" d="M128.82,43.09c-5.16,1.59-7.64-2.64-10.98-5.03,2.01-1.32,4.01-2.64,6.02-3.97,.35,.02,.7,.05,1.05,.07,2.94,1.35,5.59,3.36,8.89,3.92-1.33,2-3.01,3.64-4.98,5.01Z"/><path class="cls-20" d="M24.86,63.14c-2.21,3.01,.39,6.97-1.97,9.96-2.32-1.68-4.31-3.68-5.98-6.01,.66-2.33,1.32-4.66,1.98-6.99,.65,.01,1.3,.03,1.94,.04,.97,1.5,2.03,2.88,4.03,3Z"/><path class="cls-8" d="M8.84,54.13c-1.53-.28-2.91-.83-3.95-2.04-1.77-2.75-1.36-5.54-.13-8.34,1.67-1.67,3.34-3.34,5.01-5.01-.29,5.13,1.23,10.37-.92,15.39Z"/><path class="cls-11" d="M133.79,38.08c-4.28,1.67-6.6-1.08-8.89-3.92,1.86-1.25,3.55-2.81,5.91-3.13,2.42,1.61,4.75,3.55,7.97,2.04-1.34,1.99-3.02,3.64-4.99,5.01Z"/><path class="cls-35" d="M58.88,80.09c2.16-2.26,0-5.6,1.98-7.91,2.33,.92,3.63,2.92,5.09,4.77-1.04,2.09-.52,5.14-3.66,5.94-.48,.01-.95-.05-1.41-.18-1.04-.58-2.36-.96-1.99-2.62Z"/><path class="cls-37" d="M61.88,82.09c3.33-.16,.78-4.96,4.07-5.14,1.63,1.03,2.97,2.36,3.98,4,.85,2.14,.7,3.78-2.05,4.14-.33,0-.67,0-1,0-1.94-.55-4.74,.35-5-2.99Z"/><path class="cls-5" d="M4.76,43.75c.04,2.78,.09,5.56,.13,8.34-1.62-.66-3.23-1.31-4.85-1.97-.44-3.61,3.07-4.3,4.72-6.37Z"/><path class="cls-18" d="M49.88,109.08c-1.43,1.42-3.31,3.01-5.08,2.33-1.92-.74-.76-3.23-.89-4.94-.68-9.15-.26-18.32,.02-27.48,.05-1.69-1.08-4.15,.75-4.93,1.71-.73,3.82,.4,5.21,2.02,.86,11,.86,22,0,33Z"/><path class="cls-35" d="M49.88,109.08c-1.39-1.12-.98-2.7-.99-4.14-.03-8.24-.03-16.48,0-24.72,0-1.43-.4-3.01,.99-4.14,.33,0,.66,0,1,0,1.33,1,2.67,1.99,4,2.99,1.4,2.02,1.62,4.31,1.54,6.66-.23,6.78,.61,13.58-.54,20.34-1.31,1.59-3.88,1.09-5,3-.33,0-.66,0-1,0Z"/><path class="cls-37" d="M55.88,106.08c-2-3.03-.82-6.41-.94-9.62-.21-5.79-.06-11.58-.06-17.38,1.24,.7,2.54,1.16,4,1.01,.67,.67,1.33,1.33,2,2,2.46,7,2.46,14,0,21-.67,.66-1.33,1.33-2,1.99-1,.33-2,.67-3,1Z"/></svg>