<?xml version="1.0" encoding="UTF-8"?><svg id="_лой_1" xmlns="http://www.w3.org/2000/svg" viewBox="0 0 400 400"><defs><style>.cls-1{fill:none;}</style></defs><g><path d="M322.27,327.12H76.74c.89-5.67,1.21-11.36,2.72-16.71,6.21-22,20.91-35.54,42.82-41.25,9.22-2.41,18.64-4.07,27.97-6.08,1-.22,2-.48,2.98-.77,12.5-3.68,14.53-6.29,14.95-19.16,.05-1.47,.12-2.93,.26-4.39,.45-4.68-.24-8.71-3.84-12.43-5.79-6-6.84-14.09-8-21.96-.43-2.9-.72-5.82-1.11-9.02-4.62-.3-6.83-3.49-7.8-7.53-1.81-7.55-3.5-15.14-4.87-22.77-.65-3.6-.04-7.13,4.27-8.25-4.09-12.94-5.49-26.03-3.61-39.26,2.39-16.89,11.57-29.41,26.71-37.05,18.67-9.42,37.88-9.78,56.94-1.14,20.39,9.24,31.71,29.3,29.69,52.38-.73,8.28-2.27,16.49-3.51,25.18,3.41,.85,4.01,4.34,3.32,7.88-1.62,8.33-3.31,16.68-5.7,24.8-.75,2.56-3.82,4.43-5.82,6.62l-.88-.74c-.7,5.08-1.25,10.19-2.12,15.24-1.04,6.02-3.43,11.35-7.7,16-1.85,2.02-2.98,5.35-3.12,8.15-.24,5.1,.5,10.24,.84,15.36,.34,5.07,3.15,8.12,7.94,9.29,10.96,2.68,21.9,5.44,32.93,7.81,29.4,6.34,49.69,30.65,49.26,59.82v-.02Z"/><path d="M302.39,228.2c-9.03-2.35-17.05-4.08-24.81-6.58-4.68-1.51-4.84-2.93-2.49-7.26,4.88-8.95,5.55-18.75,5.85-28.62,.31-10.42,.21-20.87,.81-31.27,1.63-28.16,19.58-39.2,43.69-38.88,23.25,.31,37.8,14.85,39.22,38.92,.49,8.33,.17,16.73-.02,25.09-.3,13.61-.09,27.08,8.55,39.09-9.12,6.46-19.36,6.47-29.71,7.52-.25,2.42-.54,4.86-.75,7.3-.45,5.27,2.07,8.89,6.83,10.59,4.54,1.62,9.25,2.87,13.98,3.83,12.04,2.45,22.09,7.86,28.77,18.5,3.43,5.46,5.19,11.46,5.08,18.27-1.19,.1-2.31,.29-3.43,.29-21.17,.02-42.34-.02-63.52,.06-2.48,0-3.56-.92-5.03-2.98-10.42-14.6-23.5-25.24-42.27-27.01-2.29-.22-4.44-1.87-6.66-2.85,1.93-1.73,3.59-4.06,5.84-5.04,3.18-1.38,6.8-1.73,10.22-2.59,8.77-2.21,9.26-2.79,9.83-11.73,.12-1.86,.02-3.74,.02-4.63v-.02Z"/><path d="M2.35,284.65c-.21-17.03,12.4-31.94,29.92-35.79,4.87-1.07,9.78-2.03,14.54-3.47,8.3-2.5,9.78-4.72,9.62-13.31-.04-1.88-.26-3.76-.39-5.46-5.89-.77-11.51-1.46-17.12-2.26-1.29-.18-2.55-.66-3.8-1.09-8.91-3.03-8.35-3.23-4.91-11.81,2.67-6.64,3.98-14.11,4.44-21.3,.69-10.67-.03-21.42,.12-32.13,.05-3.93,.56-7.92,1.38-11.77,5.23-24.54,24.43-32.47,45.06-30.13,24.17,2.74,36.64,17.66,37.25,43.64,.24,10.28-.1,20.57,.21,30.84,.26,8.73,1.9,17.21,6.79,24.72,1.56,2.39,1.2,4.45-1.5,5.2-7.28,2.01-14.58,4.18-22.03,5.31-4.04,.61-5.28,1.78-5.03,5.69,.63,9.81,.71,9.93,10.16,12.34,4.38,1.12,8.76,2.43,12.92,4.18,1.38,.58,2.07,2.8,3.07,4.28-1.35,.64-2.66,1.72-4.06,1.85-19.26,1.8-33.32,11.77-44,27.39-1.06,1.55-3.3,3.25-5,3.27-22.04,.21-44.08,.14-66.13,.12-.42,0-.84-.16-1.54-.31h.03Z"/></g><rect class="cls-1" width="400" height="400"/></svg>