<?xml version="1.0" encoding="utf-8"?>
<!-- Generator: Adobe Illustrator 26.3.1, SVG Export Plug-In . SVG Version: 6.00 Build 0)  -->
<svg version="1.1" id="_лой_1" xmlns="http://www.w3.org/2000/svg" xmlns:xlink="http://www.w3.org/1999/xlink" x="0px" y="0px"
	 viewBox="0 0 400 400" style="enable-background:new 0 0 400 400;" xml:space="preserve">
<style type="text/css">
	.st0{fill:#F4B400;}
	.st1{fill:none;}
</style>
<g>
	<path class="st0" d="M322.3,327.1H76.7c0.9-5.7,1.2-11.4,2.7-16.7c6.2-22,20.9-35.5,42.8-41.2c9.2-2.4,18.6-4.1,28-6.1
		c1-0.2,2-0.5,3-0.8c12.5-3.7,14.5-6.3,14.9-19.2c0.1-1.5,0.1-2.9,0.3-4.4c0.4-4.7-0.2-8.7-3.8-12.4c-5.8-6-6.8-14.1-8-22
		c-0.4-2.9-0.7-5.8-1.1-9c-4.6-0.3-6.8-3.5-7.8-7.5c-1.8-7.6-3.5-15.1-4.9-22.8c-0.6-3.6,0-7.1,4.3-8.2c-4.1-12.9-5.5-26-3.6-39.3
		c2.4-16.9,11.6-29.4,26.7-37.1c18.7-9.4,37.9-9.8,56.9-1.1c20.4,9.2,31.7,29.3,29.7,52.4c-0.7,8.3-2.3,16.5-3.5,25.2
		c3.4,0.9,4,4.3,3.3,7.9c-1.6,8.3-3.3,16.7-5.7,24.8c-0.8,2.6-3.8,4.4-5.8,6.6l-0.9-0.7c-0.7,5.1-1.2,10.2-2.1,15.2
		c-1,6-3.4,11.4-7.7,16c-1.9,2-3,5.4-3.1,8.1c-0.2,5.1,0.5,10.2,0.8,15.4c0.3,5.1,3.1,8.1,7.9,9.3c11,2.7,21.9,5.4,32.9,7.8
		C302.4,273.7,322.7,298,322.3,327.1L322.3,327.1L322.3,327.1z"/>
	<path class="st0" d="M302.4,228.2c-9-2.4-17-4.1-24.8-6.6c-4.7-1.5-4.8-2.9-2.5-7.3c4.9-8.9,5.5-18.8,5.9-28.6
		c0.3-10.4,0.2-20.9,0.8-31.3c1.6-28.2,19.6-39.2,43.7-38.9c23.2,0.3,37.8,14.9,39.2,38.9c0.5,8.3,0.2,16.7,0,25.1
		c-0.3,13.6-0.1,27.1,8.5,39.1c-9.1,6.5-19.4,6.5-29.7,7.5c-0.2,2.4-0.5,4.9-0.8,7.3c-0.5,5.3,2.1,8.9,6.8,10.6
		c4.5,1.6,9.2,2.9,14,3.8c12,2.4,22.1,7.9,28.8,18.5c3.4,5.5,5.2,11.5,5.1,18.3c-1.2,0.1-2.3,0.3-3.4,0.3c-21.2,0-42.3,0-63.5,0.1
		c-2.5,0-3.6-0.9-5-3c-10.4-14.6-23.5-25.2-42.3-27c-2.3-0.2-4.4-1.9-6.7-2.9c1.9-1.7,3.6-4.1,5.8-5c3.2-1.4,6.8-1.7,10.2-2.6
		c8.8-2.2,9.3-2.8,9.8-11.7C302.5,231,302.4,229.1,302.4,228.2L302.4,228.2L302.4,228.2z"/>
	<path class="st0" d="M2.3,284.6c-0.2-17,12.4-31.9,29.9-35.8c4.9-1.1,9.8-2,14.5-3.5c8.3-2.5,9.8-4.7,9.6-13.3
		c0-1.9-0.3-3.8-0.4-5.5c-5.9-0.8-11.5-1.5-17.1-2.3c-1.3-0.2-2.5-0.7-3.8-1.1c-8.9-3-8.4-3.2-4.9-11.8c2.7-6.6,4-14.1,4.4-21.3
		c0.7-10.7,0-21.4,0.1-32.1c0-3.9,0.6-7.9,1.4-11.8c5.2-24.5,24.4-32.5,45.1-30.1c24.2,2.7,36.6,17.7,37.2,43.6
		c0.2,10.3-0.1,20.6,0.2,30.8c0.3,8.7,1.9,17.2,6.8,24.7c1.6,2.4,1.2,4.4-1.5,5.2c-7.3,2-14.6,4.2-22,5.3c-4,0.6-5.3,1.8-5,5.7
		c0.6,9.8,0.7,9.9,10.2,12.3c4.4,1.1,8.8,2.4,12.9,4.2c1.4,0.6,2.1,2.8,3.1,4.3c-1.3,0.6-2.7,1.7-4.1,1.9
		c-19.3,1.8-33.3,11.8-44,27.4c-1.1,1.5-3.3,3.2-5,3.3c-22,0.2-44.1,0.1-66.1,0.1C3.4,285,3,284.8,2.3,284.6L2.3,284.6L2.3,284.6z"
		/>
</g>
<rect class="st1" width="400" height="400"/>
</svg>
