<?xml version="1.0" encoding="UTF-8"?><svg id="_лой_1" xmlns="http://www.w3.org/2000/svg" viewBox="0 0 400 400"><defs><style>.cls-1{fill:none;}</style></defs><g><path d="M178.14,49.12c2.93,.43,5.91,.63,8.77,1.33,10.27,2.52,19.18,7.39,26.03,15.64,1.37,1.65,2.95,2.85,5.04,3.6,5.14,1.85,8.49,5.74,11.1,10.38,3.42,6.08,4.3,12.71,4.43,19.52,.17,8.76-.08,17.5-1.86,26.12-.26,1.28-.09,2.22,1.02,3.08,2.02,1.57,2.71,3.83,2.85,6.29,.34,5.82-1.1,11.37-2.82,16.83-1.18,3.74-2.66,7.4-4.27,10.98-1.15,2.55-3.04,4.46-6.19,4.47-1.26,0-1.47,1.05-1.69,2.03-1.39,6.17-3.2,12.2-5.87,17.95-6.58,14.15-17.47,23.05-32.8,25.97-17.16,3.27-37.19-2.51-49.11-20.92-4.43-6.85-7.18-14.34-9.02-22.22-.51-2.18-1.34-3.99-3.27-5.51-1.67-1.31-2.91-3.34-3.91-5.27-4.25-8.22-6.7-16.92-6.52-26.26,.07-3.85,1.59-5.87,5.29-6.86,.41-.11,.81-.26,1.23-.4-.67-2.85-1.52-5.58-1.95-8.38-2.17-14.19,.76-27.34,9.01-39.07,9.41-13.36,21.71-23.03,37.53-27.81,2.45-.74,5.05-1.01,7.58-1.49h9.4Z"/><path d="M352.86,243.62c-.21,4.58-.43,9.15-.64,13.73-.33,6.96-.61,13.92-1.04,20.87-.07,1.21-.47,2.66-1.25,3.51-1.7,1.87-3.59,1.88-5.64,.35-1.12-.84-2.12-1.84-3.14-2.8-3.44-3.2-6.87-6.4-10.84-10.11-.45,.75-.71,1.45-1.19,1.93-27.26,28.04-54.52,56.09-81.84,84.08-3.2,3.28-6.61,6.38-10.11,9.34-3.73,3.15-5.72,3.15-9.37-.15-6.73-6.09-13.34-12.3-19.9-18.58-10.38-9.94-20.66-19.97-30.99-29.96-.34-.33-.71-.64-.72-.49-3.32,3.08-6.76,6.05-9.94,9.26-9.32,9.39-18.54,18.89-27.81,28.33-1.06,1.08-2.2,2.08-3.37,3.03-3.07,2.5-7.19,2.44-10.19-.18-1.14-.99-2.21-2.07-3.23-3.19-2.99-3.26-3.11-7.74-.07-10.9,15.85-16.53,31.73-33.03,47.66-49.49,3.48-3.6,8.52-3.68,12.13-.25,14.36,13.66,28.67,27.39,42.99,41.09,2.65,2.54,5.33,5.05,8.32,7.88,27.72-28.52,55.37-56.96,83.16-85.54-1.72-1.78-3.25-3.35-4.77-4.93-2.73-2.84-5.54-5.62-8.14-8.57-1.83-2.07-1.77-3.56-.04-5.26,.57-.56,1.46-1.01,2.25-1.09,4.61-.5,9.23-.97,13.86-1.27,8.78-.57,17.58-1.04,26.37-1.51,1.23-.07,2.49-.02,3.71,.13,2.37,.29,3.16,1.15,3.48,3.51,.08,.57,.21,1.14,.32,1.71v5.51h-.02Z"/><path d="M56.69,322.92v-1.59c.29-12.85,.52-25.71,.89-38.56,.23-8.07,1.17-16.03,4.06-23.66,3.49-9.2,9.51-16.15,18.39-20.39,8.22-3.93,16.69-7.34,24.86-11.38,8.36-4.14,16.47-8.76,24.69-13.18,.61-.33,1.19-.69,1.96-1.14,.42,1.09,.81,2.01,1.13,2.96,7.16,21.26,14.32,42.52,21.42,63.79,.19,.56,.04,1.54-.35,1.94-12.64,13.03-25.31,26.02-38.04,38.96-.71,.72-1.94,1.27-2.94,1.3-18.36,.4-36.72,.71-55.09,1.03-.26,0-.53-.04-1-.07h.02Z"/><path d="M215.03,211.87c4.53,2.41,8.79,4.99,13.3,7.01,11.51,5.15,23.11,10.11,34.73,15.02,7.63,3.22,14.68,7.2,19.35,14.32,1.68,2.55,2.9,5.4,4.31,8.13,.65,1.26,.37,2.26-.64,3.32-9.7,10.08-19.32,20.24-29.02,30.32-7.79,8.1-15.66,16.11-23.49,24.17-.34,.35-.64,.73-1.06,1.21-1.21-1.1-2.33-2.07-3.41-3.11-11.14-10.78-22.27-21.57-33.42-32.34-.62-.6-.98-1.08-.69-2.06,6.51-21.46,12.99-42.94,19.47-64.41,.15-.51,.36-1,.56-1.57h.01Z"/><path d="M183.09,271.82c-6.06-1-11.76-.97-17.8,.98,.54-1.82,.78-3.31,1.42-4.61,1.42-2.84,1.01-5.05-.95-7.69-3.69-4.95-6.37-10.51-7.43-16.7-.73-4.23,.98-7.48,4.12-10.1,2.08-1.73,4.59-2.64,7.25-2.95,3.73-.44,7.45-.3,11.09,.69,6.82,1.85,9.86,7.13,8.2,14.15-1.43,6.03-4.24,11.41-7.81,16.4-.71,1-.82,1.85-.4,2.97,.79,2.1,1.44,4.25,2.31,6.85h0Z"/></g><rect class="cls-1" width="400" height="400"/></svg>