<?xml version="1.0" encoding="utf-8"?>
<!-- Generator: Adobe Illustrator 26.3.1, SVG Export Plug-In . SVG Version: 6.00 Build 0)  -->
<svg version="1.1" id="_лой_1" xmlns="http://www.w3.org/2000/svg" xmlns:xlink="http://www.w3.org/1999/xlink" x="0px" y="0px"
	 viewBox="0 0 400 400" style="enable-background:new 0 0 400 400;" xml:space="preserve">
<style type="text/css">
	.st0{fill:#F4B400;}
	.st1{fill:none;}
</style>
<g>
	<path class="st0" d="M178.1,49.1c2.9,0.4,5.9,0.6,8.8,1.3c10.3,2.5,19.2,7.4,26,15.6c1.4,1.7,2.9,2.8,5,3.6
		c5.1,1.8,8.5,5.7,11.1,10.4c3.4,6.1,4.3,12.7,4.4,19.5c0.2,8.8-0.1,17.5-1.9,26.1c-0.3,1.3-0.1,2.2,1,3.1c2,1.6,2.7,3.8,2.9,6.3
		c0.3,5.8-1.1,11.4-2.8,16.8c-1.2,3.7-2.7,7.4-4.3,11c-1.1,2.6-3,4.5-6.2,4.5c-1.3,0-1.5,1.1-1.7,2c-1.4,6.2-3.2,12.2-5.9,17.9
		c-6.6,14.1-17.5,23.1-32.8,26c-17.2,3.3-37.2-2.5-49.1-20.9c-4.4-6.9-7.2-14.3-9-22.2c-0.5-2.2-1.3-4-3.3-5.5
		c-1.7-1.3-2.9-3.3-3.9-5.3c-4.2-8.2-6.7-16.9-6.5-26.3c0.1-3.9,1.6-5.9,5.3-6.9c0.4-0.1,0.8-0.3,1.2-0.4c-0.7-2.8-1.5-5.6-1.9-8.4
		c-2.2-14.2,0.8-27.3,9-39.1c9.4-13.4,21.7-23,37.5-27.8c2.4-0.7,5.1-1,7.6-1.5C168.7,49.1,178.1,49.1,178.1,49.1z"/>
	<path class="st0" d="M352.9,243.6c-0.2,4.6-0.4,9.1-0.6,13.7c-0.3,7-0.6,13.9-1,20.9c-0.1,1.2-0.5,2.7-1.2,3.5
		c-1.7,1.9-3.6,1.9-5.6,0.4c-1.1-0.8-2.1-1.8-3.1-2.8c-3.4-3.2-6.9-6.4-10.8-10.1c-0.5,0.8-0.7,1.5-1.2,1.9
		c-27.3,28-54.5,56.1-81.8,84.1c-3.2,3.3-6.6,6.4-10.1,9.3c-3.7,3.1-5.7,3.1-9.4-0.1c-6.7-6.1-13.3-12.3-19.9-18.6
		c-10.4-9.9-20.7-20-31-30c-0.3-0.3-0.7-0.6-0.7-0.5c-3.3,3.1-6.8,6-9.9,9.3c-9.3,9.4-18.5,18.9-27.8,28.3c-1.1,1.1-2.2,2.1-3.4,3
		c-3.1,2.5-7.2,2.4-10.2-0.2c-1.1-1-2.2-2.1-3.2-3.2c-3-3.3-3.1-7.7-0.1-10.9c15.9-16.5,31.7-33,47.7-49.5c3.5-3.6,8.5-3.7,12.1-0.2
		c14.4,13.7,28.7,27.4,43,41.1c2.6,2.5,5.3,5,8.3,7.9c27.7-28.5,55.4-57,83.2-85.5c-1.7-1.8-3.2-3.4-4.8-4.9
		c-2.7-2.8-5.5-5.6-8.1-8.6c-1.8-2.1-1.8-3.6,0-5.3c0.6-0.6,1.5-1,2.2-1.1c4.6-0.5,9.2-1,13.9-1.3c8.8-0.6,17.6-1,26.4-1.5
		c1.2-0.1,2.5,0,3.7,0.1c2.4,0.3,3.2,1.1,3.5,3.5c0.1,0.6,0.2,1.1,0.3,1.7L352.9,243.6L352.9,243.6L352.9,243.6z"/>
	<path class="st0" d="M56.7,322.9v-1.6c0.3-12.9,0.5-25.7,0.9-38.6c0.2-8.1,1.2-16,4.1-23.7c3.5-9.2,9.5-16.1,18.4-20.4
		c8.2-3.9,16.7-7.3,24.9-11.4c8.4-4.1,16.5-8.8,24.7-13.2c0.6-0.3,1.2-0.7,2-1.1c0.4,1.1,0.8,2,1.1,3c7.2,21.3,14.3,42.5,21.4,63.8
		c0.2,0.6,0,1.5-0.4,1.9c-12.6,13-25.3,26-38,39c-0.7,0.7-1.9,1.3-2.9,1.3c-18.4,0.4-36.7,0.7-55.1,1C57.4,323,57.1,323,56.7,322.9
		L56.7,322.9L56.7,322.9z"/>
	<path class="st0" d="M215,211.9c4.5,2.4,8.8,5,13.3,7c11.5,5.1,23.1,10.1,34.7,15c7.6,3.2,14.7,7.2,19.4,14.3
		c1.7,2.6,2.9,5.4,4.3,8.1c0.6,1.3,0.4,2.3-0.6,3.3c-9.7,10.1-19.3,20.2-29,30.3c-7.8,8.1-15.7,16.1-23.5,24.2
		c-0.3,0.4-0.6,0.7-1.1,1.2c-1.2-1.1-2.3-2.1-3.4-3.1c-11.1-10.8-22.3-21.6-33.4-32.3c-0.6-0.6-1-1.1-0.7-2.1
		c6.5-21.5,13-42.9,19.5-64.4C214.6,212.9,214.8,212.5,215,211.9L215,211.9L215,211.9z"/>
	<path class="st0" d="M183.1,271.8c-6.1-1-11.8-1-17.8,1c0.5-1.8,0.8-3.3,1.4-4.6c1.4-2.8,1-5-0.9-7.7c-3.7-4.9-6.4-10.5-7.4-16.7
		c-0.7-4.2,1-7.5,4.1-10.1c2.1-1.7,4.6-2.6,7.2-2.9c3.7-0.4,7.4-0.3,11.1,0.7c6.8,1.9,9.9,7.1,8.2,14.1c-1.4,6-4.2,11.4-7.8,16.4
		c-0.7,1-0.8,1.9-0.4,3C181.6,267.1,182.2,269.2,183.1,271.8L183.1,271.8L183.1,271.8z"/>
</g>
<rect class="st1" width="400" height="400"/>
</svg>
